<?xml version="1.0" encoding="UTF-8" standalone="no"?><svg xmlns="http://www.w3.org/2000/svg" xmlns:xlink="http://www.w3.org/1999/xlink" clip-rule="evenodd" stroke-miterlimit="10" viewBox="0 0 443 420"><desc>SVG generated by Keynote</desc><defs></defs><g transform="matrix(1.00, 0.00, -0.00, -1.00, 0.0, 420.0)"><text xml:space="preserve" font-family="GillSans,Gill Sans" font-size="29.1" fill="#60605F" transform="matrix(1.00, 0.00, -0.00, -1.00, 0.0, 398.7)">I</text><text xml:space="preserve" font-family="GillSans,Gill Sans" font-size="29.1" fill="#60605F" transform="matrix(1.00, 0.00, -0.00, -1.00, 7.3, 398.7)">t</text><text xml:space="preserve" font-family="GillSans,Gill Sans" font-size="29.1" fill="#60605F" transform="matrix(1.00, 0.00, -0.00, -1.00, 17.0, 398.7)"> </text><text xml:space="preserve" font-family="GillSans,Gill Sans" font-size="29.1" fill="#60605F" transform="matrix(1.00, 0.00, -0.00, -1.00, 25.0, 398.7)">c</text><text xml:space="preserve" font-family="GillSans,Gill Sans" font-size="29.1" fill="#60605F" transform="matrix(1.00, 0.00, -0.00, -1.00, 37.8, 398.7)">o</text><text xml:space="preserve" font-family="GillSans,Gill Sans" font-size="29.1" fill="#60605F" transform="matrix(1.00, 0.00, -0.00, -1.00, 53.8, 398.7)">n</text><text xml:space="preserve" font-family="GillSans,Gill Sans" font-size="29.1" fill="#60605F" transform="matrix(1.00, 0.00, -0.00, -1.00, 68.4, 398.7)">s</text><text xml:space="preserve" font-family="GillSans,Gill Sans" font-size="29.1" fill="#60605F" transform="matrix(1.00, 0.00, -0.00, -1.00, 79.6, 398.7)">i</text><text xml:space="preserve" font-family="GillSans,Gill Sans" font-size="29.1" fill="#60605F" transform="matrix(1.00, 0.00, -0.00, -1.00, 86.0, 398.7)">s</text><text xml:space="preserve" font-family="GillSans,Gill Sans" font-size="29.1" fill="#60605F" transform="matrix(1.00, 0.00, -0.00, -1.00, 97.2, 398.7)">t</text><text xml:space="preserve" font-family="GillSans,Gill Sans" font-size="29.1" fill="#60605F" transform="matrix(1.00, 0.00, -0.00, -1.00, 106.8, 398.7)">s</text><text xml:space="preserve" font-family="GillSans,Gill Sans" font-size="29.1" fill="#60605F" transform="matrix(1.00, 0.00, -0.00, -1.00, 118.0, 398.7)"> </text><text xml:space="preserve" font-family="GillSans,Gill Sans" font-size="29.1" fill="#60605F" transform="matrix(1.00, 0.00, -0.00, -1.00, 126.1, 398.7)">o</text><text xml:space="preserve" font-family="GillSans,Gill Sans" font-size="29.1" fill="#60605F" transform="matrix(1.00, 0.00, -0.00, -1.00, 142.2, 398.7)">f</text><text xml:space="preserve" font-family="GillSans,Gill Sans" font-size="29.1" fill="#60605F" transform="matrix(1.00, 0.00, -0.00, -1.00, 149.4, 398.7)">:</text><text xml:space="preserve" font-family="GillSans,Gill Sans" font-size="29.1" fill="#60605F" transform="matrix(1.00, 0.00, -0.00, -1.00, 155.8, 398.7)">	</text><text xml:space="preserve" font-family="GillSans,Gill Sans" font-size="29.1" fill="#60605F" transform="matrix(1.00, 0.00, -0.00, -1.00, 183.8, 398.7)">
</text><text xml:space="preserve" font-family="GillSans,Gill Sans" font-size="29.1" fill="#60605F" transform="matrix(1.00, 0.00, -0.00, -1.00, 183.8, 398.7)"></text><text xml:space="preserve" font-family="GillSans,Gill Sans" font-size="29.1" fill="#A1A1A1" transform="matrix(1.00, 0.00, -0.00, -1.00, 0.0, 333.7)">1</text><text xml:space="preserve" font-family="GillSans,Gill Sans" font-size="29.1" fill="#A1A1A1" transform="matrix(1.00, 0.00, -0.00, -1.00, 14.6, 333.7)">.</text><text xml:space="preserve" font-family="GillSans,Gill Sans" font-size="29.1" fill="#60605F" transform="matrix(1.00, 0.00, -0.00, -1.00, 36.8, 333.7)">A</text><text xml:space="preserve" font-family="GillSans,Gill Sans" font-size="29.1" fill="#60605F" transform="matrix(1.00, 0.00, -0.00, -1.00, 56.2, 333.7)">r</text><text xml:space="preserve" font-family="GillSans,Gill Sans" font-size="29.1" fill="#60605F" transform="matrix(1.00, 0.00, -0.00, -1.00, 67.3, 333.7)">d</text><text xml:space="preserve" font-family="GillSans,Gill Sans" font-size="29.1" fill="#60605F" transform="matrix(1.00, 0.00, -0.00, -1.00, 82.1, 333.7)">u</text><text xml:space="preserve" font-family="GillSans,Gill Sans" font-size="29.1" fill="#60605F" transform="matrix(1.00, 0.00, -0.00, -1.00, 96.7, 333.7)">i</text><text xml:space="preserve" font-family="GillSans,Gill Sans" font-size="29.1" fill="#60605F" transform="matrix(1.00, 0.00, -0.00, -1.00, 103.1, 333.7)">n</text><text xml:space="preserve" font-family="GillSans,Gill Sans" font-size="29.1" fill="#60605F" transform="matrix(1.00, 0.00, -0.00, -1.00, 117.6, 333.7)">o</text><text xml:space="preserve" font-family="GillSans,Gill Sans" font-size="29.1" fill="#60605F" transform="matrix(1.00, 0.00, -0.00, -1.00, 133.7, 333.7)"> </text><text xml:space="preserve" font-family="GillSans,Gill Sans" font-size="29.1" fill="#60605F" transform="matrix(1.00, 0.00, -0.00, -1.00, 137.4, 333.7)">Y</text><text xml:space="preserve" font-family="GillSans,Gill Sans" font-size="29.1" fill="#60605F" transform="matrix(1.00, 0.00, -0.00, -1.00, 155.0, 333.7)">ú</text><text xml:space="preserve" font-family="GillSans,Gill Sans" font-size="29.1" fill="#60605F" transform="matrix(1.00, 0.00, -0.00, -1.00, 169.5, 333.7)">n</text><text xml:space="preserve" font-family="GillSans,Gill Sans" font-size="29.1" fill="#60605F" transform="matrix(1.00, 0.00, -0.00, -1.00, 184.1, 333.7)"> </text><text xml:space="preserve" font-family="GillSans,Gill Sans" font-size="29.1" fill="#60605F" transform="matrix(1.00, 0.00, -0.00, -1.00, 192.1, 333.7)">(</text><text xml:space="preserve" font-family="GillSans,Gill Sans" font-size="29.1" fill="#60605F" transform="matrix(1.00, 0.00, -0.00, -1.00, 201.5, 333.7)">m</text><text xml:space="preserve" font-family="GillSans,Gill Sans" font-size="29.1" fill="#60605F" transform="matrix(1.00, 0.00, -0.00, -1.00, 224.0, 333.7)">i</text><text xml:space="preserve" font-family="GillSans,Gill Sans" font-size="29.1" fill="#60605F" transform="matrix(1.00, 0.00, -0.00, -1.00, 230.4, 333.7)">c</text><text xml:space="preserve" font-family="GillSans,Gill Sans" font-size="29.1" fill="#60605F" transform="matrix(1.00, 0.00, -0.00, -1.00, 243.1, 333.7)">r</text><text xml:space="preserve" font-family="GillSans,Gill Sans" font-size="29.1" fill="#60605F" transform="matrix(1.00, 0.00, -0.00, -1.00, 253.9, 333.7)">o</text><text xml:space="preserve" font-family="GillSans,Gill Sans" font-size="29.1" fill="#60605F" transform="matrix(1.00, 0.00, -0.00, -1.00, 270.0, 333.7)">c</text><text xml:space="preserve" font-family="GillSans,Gill Sans" font-size="29.1" fill="#60605F" transform="matrix(1.00, 0.00, -0.00, -1.00, 282.7, 333.7)">o</text><text xml:space="preserve" font-family="GillSans,Gill Sans" font-size="29.1" fill="#60605F" transform="matrix(1.00, 0.00, -0.00, -1.00, 298.8, 333.7)">n</text><text xml:space="preserve" font-family="GillSans,Gill Sans" font-size="29.1" fill="#60605F" transform="matrix(1.00, 0.00, -0.00, -1.00, 313.3, 333.7)">t</text><text xml:space="preserve" font-family="GillSans,Gill Sans" font-size="29.1" fill="#60605F" transform="matrix(1.00, 0.00, -0.00, -1.00, 323.0, 333.7)">r</text><text xml:space="preserve" font-family="GillSans,Gill Sans" font-size="29.1" fill="#60605F" transform="matrix(1.00, 0.00, -0.00, -1.00, 333.8, 333.7)">o</text><text xml:space="preserve" font-family="GillSans,Gill Sans" font-size="29.1" fill="#60605F" transform="matrix(1.00, 0.00, -0.00, -1.00, 349.8, 333.7)">l</text><text xml:space="preserve" font-family="GillSans,Gill Sans" font-size="29.1" fill="#60605F" transform="matrix(1.00, 0.00, -0.00, -1.00, 356.2, 333.7)">l</text><text xml:space="preserve" font-family="GillSans,Gill Sans" font-size="29.1" fill="#60605F" transform="matrix(1.00, 0.00, -0.00, -1.00, 362.6, 333.7)">e</text><text xml:space="preserve" font-family="GillSans,Gill Sans" font-size="29.1" fill="#60605F" transform="matrix(1.00, 0.00, -0.00, -1.00, 376.6, 333.7)">r</text><text xml:space="preserve" font-family="GillSans,Gill Sans" font-size="29.1" fill="#60605F" transform="matrix(1.00, 0.00, -0.00, -1.00, 388.1, 333.7)">)</text><text xml:space="preserve" font-family="GillSans,Gill Sans" font-size="29.1" fill="#60605F" transform="matrix(1.00, 0.00, -0.00, -1.00, 397.5, 333.7)">	</text><text xml:space="preserve" font-family="GillSans,Gill Sans" font-size="29.1" fill="#60605F" transform="matrix(1.00, 0.00, -0.00, -1.00, 425.5, 333.7)">
</text><text xml:space="preserve" font-family="GillSans,Gill Sans" font-size="29.1" fill="#60605F" transform="matrix(1.00, 0.00, -0.00, -1.00, 425.5, 333.7)"></text><text xml:space="preserve" font-family="GillSans,Gill Sans" font-size="29.1" fill="#A1A1A1" transform="matrix(1.00, 0.00, -0.00, -1.00, 0.0, 268.6)">2</text><text xml:space="preserve" font-family="GillSans,Gill Sans" font-size="29.1" fill="#A1A1A1" transform="matrix(1.00, 0.00, -0.00, -1.00, 14.6, 268.6)">.</text><text xml:space="preserve" font-family="GillSans,Gill Sans" font-size="29.1" fill="#60605F" transform="matrix(1.00, 0.00, -0.00, -1.00, 36.8, 268.6)">R</text><text xml:space="preserve" font-family="GillSans,Gill Sans" font-size="29.1" fill="#60605F" transform="matrix(1.00, 0.00, -0.00, -1.00, 54.4, 268.6)">a</text><text xml:space="preserve" font-family="GillSans,Gill Sans" font-size="29.1" fill="#60605F" transform="matrix(1.00, 0.00, -0.00, -1.00, 66.8, 268.6)">i</text><text xml:space="preserve" font-family="GillSans,Gill Sans" font-size="29.1" fill="#60605F" transform="matrix(1.00, 0.00, -0.00, -1.00, 73.2, 268.6)">n</text><text xml:space="preserve" font-family="GillSans,Gill Sans" font-size="29.1" fill="#60605F" transform="matrix(1.00, 0.00, -0.00, -1.00, 87.7, 268.6)"> </text><text xml:space="preserve" font-family="GillSans,Gill Sans" font-size="29.1" fill="#60605F" transform="matrix(1.00, 0.00, -0.00, -1.00, 95.8, 268.6)">D</text><text xml:space="preserve" font-family="GillSans,Gill Sans" font-size="29.1" fill="#60605F" transform="matrix(1.00, 0.00, -0.00, -1.00, 117.6, 268.6)">e</text><text xml:space="preserve" font-family="GillSans,Gill Sans" font-size="29.1" fill="#60605F" transform="matrix(1.00, 0.00, -0.00, -1.00, 131.6, 268.6)">t</text><text xml:space="preserve" font-family="GillSans,Gill Sans" font-size="29.1" fill="#60605F" transform="matrix(1.00, 0.00, -0.00, -1.00, 141.3, 268.6)">e</text><text xml:space="preserve" font-family="GillSans,Gill Sans" font-size="29.1" fill="#60605F" transform="matrix(1.00, 0.00, -0.00, -1.00, 155.2, 268.6)">c</text><text xml:space="preserve" font-family="GillSans,Gill Sans" font-size="29.1" fill="#60605F" transform="matrix(1.00, 0.00, -0.00, -1.00, 167.9, 268.6)">t</text><text xml:space="preserve" font-family="GillSans,Gill Sans" font-size="29.1" fill="#60605F" transform="matrix(1.00, 0.00, -0.00, -1.00, 177.6, 268.6)">o</text><text xml:space="preserve" font-family="GillSans,Gill Sans" font-size="29.1" fill="#60605F" transform="matrix(1.00, 0.00, -0.00, -1.00, 193.7, 268.6)">r</text><text xml:space="preserve" font-family="GillSans,Gill Sans" font-size="29.1" fill="#60605F" transform="matrix(1.00, 0.00, -0.00, -1.00, 205.2, 268.6)"> </text><text xml:space="preserve" font-family="GillSans,Gill Sans" font-size="29.1" fill="#60605F" transform="matrix(1.00, 0.00, -0.00, -1.00, 213.3, 268.6)">(</text><text xml:space="preserve" font-family="GillSans,Gill Sans" font-size="29.1" fill="#60605F" transform="matrix(1.00, 0.00, -0.00, -1.00, 222.7, 268.6)">P</text><text xml:space="preserve" font-family="GillSans,Gill Sans" font-size="29.1" fill="#60605F" transform="matrix(1.00, 0.00, -0.00, -1.00, 237.5, 268.6)">r</text><text xml:space="preserve" font-family="GillSans,Gill Sans" font-size="29.1" fill="#60605F" transform="matrix(1.00, 0.00, -0.00, -1.00, 248.5, 268.6)">e</text><text xml:space="preserve" font-family="GillSans,Gill Sans" font-size="29.1" fill="#60605F" transform="matrix(1.00, 0.00, -0.00, -1.00, 262.4, 268.6)">c</text><text xml:space="preserve" font-family="GillSans,Gill Sans" font-size="29.1" fill="#60605F" transform="matrix(1.00, 0.00, -0.00, -1.00, 275.2, 268.6)">i</text><text xml:space="preserve" font-family="GillSans,Gill Sans" font-size="29.1" fill="#60605F" transform="matrix(1.00, 0.00, -0.00, -1.00, 281.5, 268.6)">p</text><text xml:space="preserve" font-family="GillSans,Gill Sans" font-size="29.1" fill="#60605F" transform="matrix(1.00, 0.00, -0.00, -1.00, 296.1, 268.6)">i</text><text xml:space="preserve" font-family="GillSans,Gill Sans" font-size="29.1" fill="#60605F" transform="matrix(1.00, 0.00, -0.00, -1.00, 302.5, 268.6)">t</text><text xml:space="preserve" font-family="GillSans,Gill Sans" font-size="29.1" fill="#60605F" transform="matrix(1.00, 0.00, -0.00, -1.00, 312.2, 268.6)">a</text><text xml:space="preserve" font-family="GillSans,Gill Sans" font-size="29.1" fill="#60605F" transform="matrix(1.00, 0.00, -0.00, -1.00, 324.6, 268.6)">t</text><text xml:space="preserve" font-family="GillSans,Gill Sans" font-size="29.1" fill="#60605F" transform="matrix(1.00, 0.00, -0.00, -1.00, 334.3, 268.6)">i</text><text xml:space="preserve" font-family="GillSans,Gill Sans" font-size="29.1" fill="#60605F" transform="matrix(1.00, 0.00, -0.00, -1.00, 340.7, 268.6)">o</text><text xml:space="preserve" font-family="GillSans,Gill Sans" font-size="29.1" fill="#60605F" transform="matrix(1.00, 0.00, -0.00, -1.00, 356.7, 268.6)">n</text><text xml:space="preserve" font-family="GillSans,Gill Sans" font-size="29.1" fill="#60605F" transform="matrix(1.00, 0.00, -0.00, -1.00, 371.3, 268.6)">)</text><text xml:space="preserve" font-family="GillSans,Gill Sans" font-size="29.1" fill="#60605F" transform="matrix(1.00, 0.00, -0.00, -1.00, 380.7, 268.6)">	</text><text xml:space="preserve" font-family="GillSans,Gill Sans" font-size="29.1" fill="#60605F" transform="matrix(1.00, 0.00, -0.00, -1.00, 408.7, 268.6)">
</text><text xml:space="preserve" font-family="GillSans,Gill Sans" font-size="29.1" fill="#60605F" transform="matrix(1.00, 0.00, -0.00, -1.00, 408.7, 268.6)"></text><text xml:space="preserve" font-family="GillSans,Gill Sans" font-size="29.1" fill="#A1A1A1" transform="matrix(1.00, 0.00, -0.00, -1.00, 0.0, 203.6)">3</text><text xml:space="preserve" font-family="GillSans,Gill Sans" font-size="29.1" fill="#A1A1A1" transform="matrix(1.00, 0.00, -0.00, -1.00, 14.6, 203.6)">.</text><text xml:space="preserve" font-family="GillSans,Gill Sans" font-size="29.1" fill="#60605F" transform="matrix(1.00, 0.00, -0.00, -1.00, 36.8, 203.6)">S</text><text xml:space="preserve" font-family="GillSans,Gill Sans" font-size="29.1" fill="#60605F" transform="matrix(1.00, 0.00, -0.00, -1.00, 50.1, 203.6)">o</text><text xml:space="preserve" font-family="GillSans,Gill Sans" font-size="29.1" fill="#60605F" transform="matrix(1.00, 0.00, -0.00, -1.00, 66.2, 203.6)">i</text><text xml:space="preserve" font-family="GillSans,Gill Sans" font-size="29.1" fill="#60605F" transform="matrix(1.00, 0.00, -0.00, -1.00, 72.6, 203.6)">l</text><text xml:space="preserve" font-family="GillSans,Gill Sans" font-size="29.1" fill="#60605F" transform="matrix(1.00, 0.00, -0.00, -1.00, 79.0, 203.6)"> </text><text xml:space="preserve" font-family="GillSans,Gill Sans" font-size="29.1" fill="#60605F" transform="matrix(1.00, 0.00, -0.00, -1.00, 87.0, 203.6)">M</text><text xml:space="preserve" font-family="GillSans,Gill Sans" font-size="29.1" fill="#60605F" transform="matrix(1.00, 0.00, -0.00, -1.00, 109.7, 203.6)">o</text><text xml:space="preserve" font-family="GillSans,Gill Sans" font-size="29.1" fill="#60605F" transform="matrix(1.00, 0.00, -0.00, -1.00, 125.8, 203.6)">i</text><text xml:space="preserve" font-family="GillSans,Gill Sans" font-size="29.1" fill="#60605F" transform="matrix(1.00, 0.00, -0.00, -1.00, 132.2, 203.6)">s</text><text xml:space="preserve" font-family="GillSans,Gill Sans" font-size="29.1" fill="#60605F" transform="matrix(1.00, 0.00, -0.00, -1.00, 143.4, 203.6)">t</text><text xml:space="preserve" font-family="GillSans,Gill Sans" font-size="29.1" fill="#60605F" transform="matrix(1.00, 0.00, -0.00, -1.00, 153.1, 203.6)">u</text><text xml:space="preserve" font-family="GillSans,Gill Sans" font-size="29.1" fill="#60605F" transform="matrix(1.00, 0.00, -0.00, -1.00, 167.6, 203.6)">r</text><text xml:space="preserve" font-family="GillSans,Gill Sans" font-size="29.1" fill="#60605F" transform="matrix(1.00, 0.00, -0.00, -1.00, 178.6, 203.6)">e</text><text xml:space="preserve" font-family="GillSans,Gill Sans" font-size="29.1" fill="#60605F" transform="matrix(1.00, 0.00, -0.00, -1.00, 192.5, 203.6)"> </text><text xml:space="preserve" font-family="GillSans,Gill Sans" font-size="29.1" fill="#60605F" transform="matrix(1.00, 0.00, -0.00, -1.00, 200.6, 203.6)">S</text><text xml:space="preserve" font-family="GillSans,Gill Sans" font-size="29.1" fill="#60605F" transform="matrix(1.00, 0.00, -0.00, -1.00, 213.9, 203.6)">e</text><text xml:space="preserve" font-family="GillSans,Gill Sans" font-size="29.1" fill="#60605F" transform="matrix(1.00, 0.00, -0.00, -1.00, 227.8, 203.6)">n</text><text xml:space="preserve" font-family="GillSans,Gill Sans" font-size="29.1" fill="#60605F" transform="matrix(1.00, 0.00, -0.00, -1.00, 242.4, 203.6)">s</text><text xml:space="preserve" font-family="GillSans,Gill Sans" font-size="29.1" fill="#60605F" transform="matrix(1.00, 0.00, -0.00, -1.00, 253.6, 203.6)">o</text><text xml:space="preserve" font-family="GillSans,Gill Sans" font-size="29.1" fill="#60605F" transform="matrix(1.00, 0.00, -0.00, -1.00, 269.6, 203.6)">r</text><text xml:space="preserve" font-family="GillSans,Gill Sans" font-size="29.1" fill="#60605F" transform="matrix(1.00, 0.00, -0.00, -1.00, 281.2, 203.6)">	</text><text xml:space="preserve" font-family="GillSans,Gill Sans" font-size="29.1" fill="#60605F" transform="matrix(1.00, 0.00, -0.00, -1.00, 309.2, 203.6)">
</text><text xml:space="preserve" font-family="GillSans,Gill Sans" font-size="29.1" fill="#60605F" transform="matrix(1.00, 0.00, -0.00, -1.00, 309.2, 203.6)"></text><text xml:space="preserve" font-family="GillSans,Gill Sans" font-size="29.1" fill="#A1A1A1" transform="matrix(1.00, 0.00, -0.00, -1.00, 0.0, 138.5)">4</text><text xml:space="preserve" font-family="GillSans,Gill Sans" font-size="29.1" fill="#A1A1A1" transform="matrix(1.00, 0.00, -0.00, -1.00, 14.6, 138.5)">.</text><text xml:space="preserve" font-family="GillSans,Gill Sans" font-size="29.1" fill="#60605F" transform="matrix(1.00, 0.00, -0.00, -1.00, 36.8, 138.5)">T</text><text xml:space="preserve" font-family="GillSans,Gill Sans" font-size="29.1" fill="#60605F" transform="matrix(1.00, 0.00, -0.00, -1.00, 50.0, 138.5)">e</text><text xml:space="preserve" font-family="GillSans,Gill Sans" font-size="29.1" fill="#60605F" transform="matrix(1.00, 0.00, -0.00, -1.00, 64.0, 138.5)">m</text><text xml:space="preserve" font-family="GillSans,Gill Sans" font-size="29.1" fill="#60605F" transform="matrix(1.00, 0.00, -0.00, -1.00, 86.4, 138.5)">p</text><text xml:space="preserve" font-family="GillSans,Gill Sans" font-size="29.1" fill="#60605F" transform="matrix(1.00, 0.00, -0.00, -1.00, 100.9, 138.5)">e</text><text xml:space="preserve" font-family="GillSans,Gill Sans" font-size="29.1" fill="#60605F" transform="matrix(1.00, 0.00, -0.00, -1.00, 114.9, 138.5)">r</text><text xml:space="preserve" font-family="GillSans,Gill Sans" font-size="29.1" fill="#60605F" transform="matrix(1.00, 0.00, -0.00, -1.00, 126.4, 138.5)">a</text><text xml:space="preserve" font-family="GillSans,Gill Sans" font-size="29.1" fill="#60605F" transform="matrix(1.00, 0.00, -0.00, -1.00, 138.8, 138.5)">t</text><text xml:space="preserve" font-family="GillSans,Gill Sans" font-size="29.1" fill="#60605F" transform="matrix(1.00, 0.00, -0.00, -1.00, 148.5, 138.5)">u</text><text xml:space="preserve" font-family="GillSans,Gill Sans" font-size="29.1" fill="#60605F" transform="matrix(1.00, 0.00, -0.00, -1.00, 163.1, 138.5)">r</text><text xml:space="preserve" font-family="GillSans,Gill Sans" font-size="29.1" fill="#60605F" transform="matrix(1.00, 0.00, -0.00, -1.00, 174.0, 138.5)">e</text><text xml:space="preserve" font-family="GillSans,Gill Sans" font-size="29.1" fill="#60605F" transform="matrix(1.00, 0.00, -0.00, -1.00, 187.9, 138.5)"> </text><text xml:space="preserve" font-family="GillSans,Gill Sans" font-size="29.1" fill="#60605F" transform="matrix(1.00, 0.00, -0.00, -1.00, 196.0, 138.5)">+</text><text xml:space="preserve" font-family="GillSans,Gill Sans" font-size="29.1" fill="#60605F" transform="matrix(1.00, 0.00, -0.00, -1.00, 213.0, 138.5)"> </text><text xml:space="preserve" font-family="GillSans,Gill Sans" font-size="29.1" fill="#60605F" transform="matrix(1.00, 0.00, -0.00, -1.00, 221.1, 138.5)">H</text><text xml:space="preserve" font-family="GillSans,Gill Sans" font-size="29.1" fill="#60605F" transform="matrix(1.00, 0.00, -0.00, -1.00, 242.3, 138.5)">u</text><text xml:space="preserve" font-family="GillSans,Gill Sans" font-size="29.1" fill="#60605F" transform="matrix(1.00, 0.00, -0.00, -1.00, 256.9, 138.5)">m</text><text xml:space="preserve" font-family="GillSans,Gill Sans" font-size="29.1" fill="#60605F" transform="matrix(1.00, 0.00, -0.00, -1.00, 279.3, 138.5)">i</text><text xml:space="preserve" font-family="GillSans,Gill Sans" font-size="29.1" fill="#60605F" transform="matrix(1.00, 0.00, -0.00, -1.00, 285.7, 138.5)">d</text><text xml:space="preserve" font-family="GillSans,Gill Sans" font-size="29.1" fill="#60605F" transform="matrix(1.00, 0.00, -0.00, -1.00, 300.5, 138.5)">i</text><text xml:space="preserve" font-family="GillSans,Gill Sans" font-size="29.1" fill="#60605F" transform="matrix(1.00, 0.00, -0.00, -1.00, 306.9, 138.5)">t</text><text xml:space="preserve" font-family="GillSans,Gill Sans" font-size="29.1" fill="#60605F" transform="matrix(1.00, 0.00, -0.00, -1.00, 316.6, 138.5)">y</text><text xml:space="preserve" font-family="GillSans,Gill Sans" font-size="29.1" fill="#60605F" transform="matrix(1.00, 0.00, -0.00, -1.00, 329.3, 138.5)"> </text><text xml:space="preserve" font-family="GillSans,Gill Sans" font-size="29.1" fill="#60605F" transform="matrix(1.00, 0.00, -0.00, -1.00, 337.4, 138.5)">S</text><text xml:space="preserve" font-family="GillSans,Gill Sans" font-size="29.1" fill="#60605F" transform="matrix(1.00, 0.00, -0.00, -1.00, 350.7, 138.5)">e</text><text xml:space="preserve" font-family="GillSans,Gill Sans" font-size="29.1" fill="#60605F" transform="matrix(1.00, 0.00, -0.00, -1.00, 364.7, 138.5)">n</text><text xml:space="preserve" font-family="GillSans,Gill Sans" font-size="29.1" fill="#60605F" transform="matrix(1.00, 0.00, -0.00, -1.00, 379.2, 138.5)">s</text><text xml:space="preserve" font-family="GillSans,Gill Sans" font-size="29.1" fill="#60605F" transform="matrix(1.00, 0.00, -0.00, -1.00, 390.4, 138.5)">o</text><text xml:space="preserve" font-family="GillSans,Gill Sans" font-size="29.1" fill="#60605F" transform="matrix(1.00, 0.00, -0.00, -1.00, 406.5, 138.5)">r</text><text xml:space="preserve" font-family="GillSans,Gill Sans" font-size="29.1" fill="#60605F" transform="matrix(1.00, 0.00, -0.00, -1.00, 418.0, 138.5)">	</text><text xml:space="preserve" font-family="GillSans,Gill Sans" font-size="29.1" fill="#60605F" transform="matrix(1.00, 0.00, -0.00, -1.00, 446.0, 138.5)">
</text><text xml:space="preserve" font-family="GillSans,Gill Sans" font-size="29.1" fill="#60605F" transform="matrix(1.00, 0.00, -0.00, -1.00, 446.0, 138.5)"></text><text xml:space="preserve" font-family="GillSans,Gill Sans" font-size="29.1" fill="#A1A1A1" transform="matrix(1.00, 0.00, -0.00, -1.00, 0.0, 73.5)">5</text><text xml:space="preserve" font-family="GillSans,Gill Sans" font-size="29.1" fill="#A1A1A1" transform="matrix(1.00, 0.00, -0.00, -1.00, 14.6, 73.5)">.</text><text xml:space="preserve" font-family="GillSans,Gill Sans" font-size="29.1" fill="#60605F" transform="matrix(1.00, 0.00, -0.00, -1.00, 36.8, 73.5)">S</text><text xml:space="preserve" font-family="GillSans,Gill Sans" font-size="29.1" fill="#60605F" transform="matrix(1.00, 0.00, -0.00, -1.00, 50.1, 73.5)">u</text><text xml:space="preserve" font-family="GillSans,Gill Sans" font-size="29.1" fill="#60605F" transform="matrix(1.00, 0.00, -0.00, -1.00, 64.7, 73.5)">n</text><text xml:space="preserve" font-family="GillSans,Gill Sans" font-size="29.1" fill="#60605F" transform="matrix(1.00, 0.00, -0.00, -1.00, 79.2, 73.5)">l</text><text xml:space="preserve" font-family="GillSans,Gill Sans" font-size="29.1" fill="#60605F" transform="matrix(1.00, 0.00, -0.00, -1.00, 85.6, 73.5)">i</text><text xml:space="preserve" font-family="GillSans,Gill Sans" font-size="29.1" fill="#60605F" transform="matrix(1.00, 0.00, -0.00, -1.00, 92.0, 73.5)">g</text><text xml:space="preserve" font-family="GillSans,Gill Sans" font-size="29.1" fill="#60605F" transform="matrix(1.00, 0.00, -0.00, -1.00, 104.4, 73.5)">h</text><text xml:space="preserve" font-family="GillSans,Gill Sans" font-size="29.1" fill="#60605F" transform="matrix(1.00, 0.00, -0.00, -1.00, 119.0, 73.5)">t</text><text xml:space="preserve" font-family="GillSans,Gill Sans" font-size="29.1" fill="#60605F" transform="matrix(1.00, 0.00, -0.00, -1.00, 128.7, 73.5)"> </text><text xml:space="preserve" font-family="GillSans,Gill Sans" font-size="29.1" fill="#60605F" transform="matrix(1.00, 0.00, -0.00, -1.00, 136.7, 73.5)">s</text><text xml:space="preserve" font-family="GillSans,Gill Sans" font-size="29.1" fill="#60605F" transform="matrix(1.00, 0.00, -0.00, -1.00, 147.9, 73.5)">e</text><text xml:space="preserve" font-family="GillSans,Gill Sans" font-size="29.1" fill="#60605F" transform="matrix(1.00, 0.00, -0.00, -1.00, 161.9, 73.5)">n</text><text xml:space="preserve" font-family="GillSans,Gill Sans" font-size="29.1" fill="#60605F" transform="matrix(1.00, 0.00, -0.00, -1.00, 176.4, 73.5)">s</text><text xml:space="preserve" font-family="GillSans,Gill Sans" font-size="29.1" fill="#60605F" transform="matrix(1.00, 0.00, -0.00, -1.00, 187.6, 73.5)">o</text><text xml:space="preserve" font-family="GillSans,Gill Sans" font-size="29.1" fill="#60605F" transform="matrix(1.00, 0.00, -0.00, -1.00, 203.7, 73.5)">r</text><text xml:space="preserve" font-family="GillSans,Gill Sans" font-size="29.1" fill="#60605F" transform="matrix(1.00, 0.00, -0.00, -1.00, 215.2, 73.5)">	</text><text xml:space="preserve" font-family="GillSans,Gill Sans" font-size="29.1" fill="#60605F" transform="matrix(1.00, 0.00, -0.00, -1.00, 243.2, 73.5)">
</text><text xml:space="preserve" font-family="GillSans,Gill Sans" font-size="29.1" fill="#60605F" transform="matrix(1.00, 0.00, -0.00, -1.00, 243.2, 73.5)"></text><text xml:space="preserve" font-family="GillSans,Gill Sans" font-size="29.1" fill="#A1A1A1" transform="matrix(1.00, 0.00, -0.00, -1.00, 0.0, 8.5)">6</text><text xml:space="preserve" font-family="GillSans,Gill Sans" font-size="29.1" fill="#A1A1A1" transform="matrix(1.00, 0.00, -0.00, -1.00, 14.6, 8.5)">.</text><text xml:space="preserve" font-family="GillSans,Gill Sans" font-size="29.1" fill="#60605F" transform="matrix(1.00, 0.00, -0.00, -1.00, 36.8, 8.5)">S</text><text xml:space="preserve" font-family="GillSans,Gill Sans" font-size="29.1" fill="#60605F" transform="matrix(1.00, 0.00, -0.00, -1.00, 50.1, 8.5)">D</text><text xml:space="preserve" font-family="GillSans,Gill Sans" font-size="29.1" fill="#60605F" transform="matrix(1.00, 0.00, -0.00, -1.00, 72.0, 8.5)"> </text><text xml:space="preserve" font-family="GillSans,Gill Sans" font-size="29.1" fill="#60605F" transform="matrix(1.00, 0.00, -0.00, -1.00, 80.0, 8.5)">C</text><text xml:space="preserve" font-family="GillSans,Gill Sans" font-size="29.1" fill="#60605F" transform="matrix(1.00, 0.00, -0.00, -1.00, 100.6, 8.5)">a</text><text xml:space="preserve" font-family="GillSans,Gill Sans" font-size="29.1" fill="#60605F" transform="matrix(1.00, 0.00, -0.00, -1.00, 113.1, 8.5)">r</text><text xml:space="preserve" font-family="GillSans,Gill Sans" font-size="29.1" fill="#60605F" transform="matrix(1.00, 0.00, -0.00, -1.00, 124.1, 8.5)">d</text><text xml:space="preserve" font-family="GillSans,Gill Sans" font-size="29.1" fill="#60605F" transform="matrix(1.00, 0.00, -0.00, -1.00, 139.0, 8.5)"> </text><text xml:space="preserve" font-family="GillSans,Gill Sans" font-size="29.1" fill="#60605F" transform="matrix(1.00, 0.00, -0.00, -1.00, 147.0, 8.5)">-</text><text xml:space="preserve" font-family="GillSans,Gill Sans" font-size="29.1" fill="#60605F" transform="matrix(1.00, 0.00, -0.00, -1.00, 156.5, 8.5)"> </text><text xml:space="preserve" font-family="GillSans,Gill Sans" font-size="29.1" fill="#60605F" transform="matrix(1.00, 0.00, -0.00, -1.00, 164.5, 8.5)">E</text><text xml:space="preserve" font-family="GillSans,Gill Sans" font-size="29.1" fill="#60605F" transform="matrix(1.00, 0.00, -0.00, -1.00, 179.1, 8.5)">x</text><text xml:space="preserve" font-family="GillSans,Gill Sans" font-size="29.1" fill="#60605F" transform="matrix(1.00, 0.00, -0.00, -1.00, 193.6, 8.5)">t</text><text xml:space="preserve" font-family="GillSans,Gill Sans" font-size="29.1" fill="#60605F" transform="matrix(1.00, 0.00, -0.00, -1.00, 203.3, 8.5)">e</text><text xml:space="preserve" font-family="GillSans,Gill Sans" font-size="29.1" fill="#60605F" transform="matrix(1.00, 0.00, -0.00, -1.00, 217.3, 8.5)">r</text><text xml:space="preserve" font-family="GillSans,Gill Sans" font-size="29.1" fill="#60605F" transform="matrix(1.00, 0.00, -0.00, -1.00, 228.8, 8.5)">n</text><text xml:space="preserve" font-family="GillSans,Gill Sans" font-size="29.1" fill="#60605F" transform="matrix(1.00, 0.00, -0.00, -1.00, 243.3, 8.5)">a</text><text xml:space="preserve" font-family="GillSans,Gill Sans" font-size="29.1" fill="#60605F" transform="matrix(1.00, 0.00, -0.00, -1.00, 255.7, 8.5)">l</text><text xml:space="preserve" font-family="GillSans,Gill Sans" font-size="29.1" fill="#60605F" transform="matrix(1.00, 0.00, -0.00, -1.00, 262.1, 8.5)"> </text><text xml:space="preserve" font-family="GillSans,Gill Sans" font-size="29.1" fill="#60605F" transform="matrix(1.00, 0.00, -0.00, -1.00, 270.2, 8.5)">B</text><text xml:space="preserve" font-family="GillSans,Gill Sans" font-size="29.1" fill="#60605F" transform="matrix(1.00, 0.00, -0.00, -1.00, 286.6, 8.5)">a</text><text xml:space="preserve" font-family="GillSans,Gill Sans" font-size="29.1" fill="#60605F" transform="matrix(1.00, 0.00, -0.00, -1.00, 299.0, 8.5)">t</text><text xml:space="preserve" font-family="GillSans,Gill Sans" font-size="29.1" fill="#60605F" transform="matrix(1.00, 0.00, -0.00, -1.00, 308.7, 8.5)">t</text><text xml:space="preserve" font-family="GillSans,Gill Sans" font-size="29.1" fill="#60605F" transform="matrix(1.00, 0.00, -0.00, -1.00, 318.4, 8.5)">e</text><text xml:space="preserve" font-family="GillSans,Gill Sans" font-size="29.1" fill="#60605F" transform="matrix(1.00, 0.00, -0.00, -1.00, 332.3, 8.5)">r</text><text xml:space="preserve" font-family="GillSans,Gill Sans" font-size="29.1" fill="#60605F" transform="matrix(1.00, 0.00, -0.00, -1.00, 344.7, 8.5)">y</text><text xml:space="preserve" font-family="GillSans,Gill Sans" font-size="29.1" fill="#60605F" transform="matrix(1.00, 0.00, -0.00, -1.00, 357.5, 8.5)"> </text><text xml:space="preserve" font-family="GillSans,Gill Sans" font-size="29.1" fill="#60605F" transform="matrix(1.00, 0.00, -0.00, -1.00, 365.5, 8.5)">-</text><text xml:space="preserve" font-family="GillSans,Gill Sans" font-size="29.1" fill="#60605F" transform="matrix(1.00, 0.00, -0.00, -1.00, 375.0, 8.5)"> </text><text xml:space="preserve" font-family="GillSans,Gill Sans" font-size="29.1" fill="#60605F" transform="matrix(1.00, 0.00, -0.00, -1.00, 383.0, 8.5)">C</text><text xml:space="preserve" font-family="GillSans,Gill Sans" font-size="29.1" fill="#60605F" transform="matrix(1.00, 0.00, -0.00, -1.00, 403.6, 8.5)">a</text><text xml:space="preserve" font-family="GillSans,Gill Sans" font-size="29.1" fill="#60605F" transform="matrix(1.00, 0.00, -0.00, -1.00, 416.1, 8.5)">s</text><text xml:space="preserve" font-family="GillSans,Gill Sans" font-size="29.1" fill="#60605F" transform="matrix(1.00, 0.00, -0.00, -1.00, 427.2, 8.5)">e</text></g></svg>