<?xml version="1.0" encoding="UTF-8" standalone="no"?><svg xmlns="http://www.w3.org/2000/svg" xmlns:xlink="http://www.w3.org/1999/xlink" clip-rule="evenodd" stroke-miterlimit="10" viewBox="0 0 1024 768"><desc>SVG generated by Keynote</desc><defs><pattern id="patternP1" patternUnits="userSpaceOnUse" width="512" height="512" viewBox="0 0 512 512"><image xlink:href="../../69BA7FB1-ECE5-4D12-A957-4A6A57C89A10/assets/FA2E073AFADFA45400BFBD57DF489572.jpeg" width="512.00" height="512.00"></image></pattern></defs><g transform="matrix(1.00, 0.00, -0.00, -1.00, 0.0, 768.0)"><g><clipPath id="clip0x6000018a3540"><path d="M 0.0 768.0 L 1024.0 768.0 L 1024.0 0.0 L 0.0 0.0 Z M 0.0 768.0 "></path></clipPath><g clip-path="url(#clip0x6000018a3540)"><path d="M 0.0 0.0 L 1024.0 0.0 L 1024.0 768.0 L 0.0 768.0 Z M 0.0 0.0 " fill="url(#patternP1)"></path></g></g><g opacity="0.30"><g><clipPath id="clip0x6080016a4d40"><path d="M 39.0 563.0 L 985.0 563.0 L 985.0 567.0 L 39.0 567.0 Z M 39.0 563.0 "></path></clipPath><g clip-path="url(#clip0x6080016a4d40)"><path d="M 0.0 0.5 L 944.0 0.5 L 944.0 0.5 L 0.0 0.5 Z M 0.0 0.0 " fill="none" stroke="#434343" stroke-width="1.00" transform="matrix(1.00, 0.00, 0.00, -1.00, 40.0, 565.0)"></path></g></g></g><g opacity="0.30"><g><clipPath id="clip0x6080016a5dc0"><path d="M 39.0 36.0 L 985.0 36.0 L 985.0 45.0 L 39.0 45.0 Z M 39.0 36.0 "></path></clipPath><g clip-path="url(#clip0x6080016a5dc0)"><path d="M 0.0 0.0 L 944.0 0.0 L 944.0 0.0 L 0.0 0.0 Z M 0.0 0.0 " fill="none" stroke="#434343" stroke-width="6.00" transform="matrix(1.00, 0.00, 0.00, -1.00, 40.0, 40.0)"></path></g></g></g><g opacity="0.30"><g><clipPath id="clip0x6080016a6060"><path d="M 39.0 726.0 L 985.0 726.0 L 985.0 730.0 L 39.0 730.0 Z M 39.0 726.0 "></path></clipPath><g clip-path="url(#clip0x6080016a6060)"><path d="M 0.0 0.5 L 944.0 0.5 L 944.0 0.5 L 0.0 0.5 Z M 0.0 0.0 " fill="none" stroke="#434343" stroke-width="1.00" transform="matrix(1.00, 0.00, 0.00, -1.00, 40.0, 728.0)"></path></g></g></g><image xlink:href="../../0026366D-57D1-44BE-A46D-2F33E8C3BAA2/assets/79D940313666373E81CD3DAD9D00EDB6.png" width="1920.00" height="1080.00" transform="matrix(0.25, 0.00, -0.00, -0.25, 26.2, 457.4)"></image><image xlink:href="../../0026366D-57D1-44BE-A46D-2F33E8C3BAA2/assets/250F417B1D079B95A01BFB1D6C9FC740.png" width="500.00" height="296.00" transform="matrix(1.00, 0.00, -0.00, 1.00, 16.2, 168.6)"></image><text xml:space="preserve" font-family="GillSans-Light,Gill Sans" font-size="64.0" fill="#60605F" transform="matrix(1.00, 0.00, -0.00, -1.00, 44.0, 625.2)">A</text><text xml:space="preserve" font-family="GillSans-Light,Gill Sans" font-size="64.0" fill="#60605F" transform="matrix(1.00, 0.00, -0.00, -1.00, 86.7, 625.2)">B</text><text xml:space="preserve" font-family="GillSans-Light,Gill Sans" font-size="64.0" fill="#60605F" transform="matrix(1.00, 0.00, -0.00, -1.00, 120.6, 625.2)">O</text><text xml:space="preserve" font-family="GillSans-Light,Gill Sans" font-size="64.0" fill="#60605F" transform="matrix(1.00, 0.00, -0.00, -1.00, 173.3, 625.2)">U</text><text xml:space="preserve" font-family="GillSans-Light,Gill Sans" font-size="64.0" fill="#60605F" transform="matrix(1.00, 0.00, -0.00, -1.00, 218.0, 625.2)">T</text><text xml:space="preserve" font-family="GillSans-Light,Gill Sans" font-size="64.0" fill="#60605F" transform="matrix(1.00, 0.00, -0.00, -1.00, 254.7, 625.2)"> </text><text xml:space="preserve" font-family="GillSans-Light,Gill Sans" font-size="64.0" fill="#60605F" transform="matrix(1.00, 0.00, -0.00, -1.00, 272.5, 625.2)">D</text><text xml:space="preserve" font-family="GillSans-Light,Gill Sans" font-size="64.0" fill="#60605F" transform="matrix(1.00, 0.00, -0.00, -1.00, 319.9, 625.2)">E</text><text xml:space="preserve" font-family="GillSans-Light,Gill Sans" font-size="64.0" fill="#60605F" transform="matrix(1.00, 0.00, -0.00, -1.00, 351.3, 625.2)">V</text><text xml:space="preserve" font-family="GillSans-Light,Gill Sans" font-size="64.0" fill="#60605F" transform="matrix(1.00, 0.00, -0.00, -1.00, 389.3, 625.2)">I</text><text xml:space="preserve" font-family="GillSans-Light,Gill Sans" font-size="64.0" fill="#60605F" transform="matrix(1.00, 0.00, -0.00, -1.00, 402.6, 625.2)">C</text><text xml:space="preserve" font-family="GillSans-Light,Gill Sans" font-size="64.0" fill="#60605F" transform="matrix(1.00, 0.00, -0.00, -1.00, 445.9, 625.2)">E</text><text xml:space="preserve" font-family="GillSans,Gill Sans" font-size="29.1" fill="#60605F" transform="matrix(1.00, 0.00, -0.00, -1.00, 538.0, 501.7)">I</text><text xml:space="preserve" font-family="GillSans,Gill Sans" font-size="29.1" fill="#60605F" transform="matrix(1.00, 0.00, -0.00, -1.00, 545.3, 501.7)">t</text><text xml:space="preserve" font-family="GillSans,Gill Sans" font-size="29.1" fill="#60605F" transform="matrix(1.00, 0.00, -0.00, -1.00, 555.0, 501.7)"> </text><text xml:space="preserve" font-family="GillSans,Gill Sans" font-size="29.1" fill="#60605F" transform="matrix(1.00, 0.00, -0.00, -1.00, 563.0, 501.7)">c</text><text xml:space="preserve" font-family="GillSans,Gill Sans" font-size="29.1" fill="#60605F" transform="matrix(1.00, 0.00, -0.00, -1.00, 575.8, 501.7)">o</text><text xml:space="preserve" font-family="GillSans,Gill Sans" font-size="29.1" fill="#60605F" transform="matrix(1.00, 0.00, -0.00, -1.00, 591.8, 501.7)">n</text><text xml:space="preserve" font-family="GillSans,Gill Sans" font-size="29.1" fill="#60605F" transform="matrix(1.00, 0.00, -0.00, -1.00, 606.4, 501.7)">s</text><text xml:space="preserve" font-family="GillSans,Gill Sans" font-size="29.1" fill="#60605F" transform="matrix(1.00, 0.00, -0.00, -1.00, 617.6, 501.7)">i</text><text xml:space="preserve" font-family="GillSans,Gill Sans" font-size="29.1" fill="#60605F" transform="matrix(1.00, 0.00, -0.00, -1.00, 624.0, 501.7)">s</text><text xml:space="preserve" font-family="GillSans,Gill Sans" font-size="29.1" fill="#60605F" transform="matrix(1.00, 0.00, -0.00, -1.00, 635.2, 501.7)">t</text><text xml:space="preserve" font-family="GillSans,Gill Sans" font-size="29.1" fill="#60605F" transform="matrix(1.00, 0.00, -0.00, -1.00, 644.8, 501.7)">s</text><text xml:space="preserve" font-family="GillSans,Gill Sans" font-size="29.1" fill="#60605F" transform="matrix(1.00, 0.00, -0.00, -1.00, 656.0, 501.7)"> </text><text xml:space="preserve" font-family="GillSans,Gill Sans" font-size="29.1" fill="#60605F" transform="matrix(1.00, 0.00, -0.00, -1.00, 664.1, 501.7)">o</text><text xml:space="preserve" font-family="GillSans,Gill Sans" font-size="29.1" fill="#60605F" transform="matrix(1.00, 0.00, -0.00, -1.00, 680.2, 501.7)">f</text><text xml:space="preserve" font-family="GillSans,Gill Sans" font-size="29.1" fill="#60605F" transform="matrix(1.00, 0.00, -0.00, -1.00, 687.4, 501.7)">:</text><text xml:space="preserve" font-family="GillSans,Gill Sans" font-size="29.1" fill="#60605F" transform="matrix(1.00, 0.00, -0.00, -1.00, 693.8, 501.7)">	</text><text xml:space="preserve" font-family="GillSans,Gill Sans" font-size="29.1" fill="#60605F" transform="matrix(1.00, 0.00, -0.00, -1.00, 721.8, 501.7)">
</text><text xml:space="preserve" font-family="GillSans,Gill Sans" font-size="29.1" fill="#60605F" transform="matrix(1.00, 0.00, -0.00, -1.00, 721.8, 501.7)"></text><text xml:space="preserve" font-family="GillSans,Gill Sans" font-size="29.1" fill="#A1A1A1" transform="matrix(1.00, 0.00, -0.00, -1.00, 538.0, 436.7)">1</text><text xml:space="preserve" font-family="GillSans,Gill Sans" font-size="29.1" fill="#A1A1A1" transform="matrix(1.00, 0.00, -0.00, -1.00, 552.5, 436.7)">.</text><text xml:space="preserve" font-family="GillSans,Gill Sans" font-size="29.1" fill="#60605F" transform="matrix(1.00, 0.00, -0.00, -1.00, 574.8, 436.7)">A</text><text xml:space="preserve" font-family="GillSans,Gill Sans" font-size="29.1" fill="#60605F" transform="matrix(1.00, 0.00, -0.00, -1.00, 594.2, 436.7)">r</text><text xml:space="preserve" font-family="GillSans,Gill Sans" font-size="29.1" fill="#60605F" transform="matrix(1.00, 0.00, -0.00, -1.00, 605.3, 436.7)">d</text><text xml:space="preserve" font-family="GillSans,Gill Sans" font-size="29.1" fill="#60605F" transform="matrix(1.00, 0.00, -0.00, -1.00, 620.1, 436.7)">u</text><text xml:space="preserve" font-family="GillSans,Gill Sans" font-size="29.1" fill="#60605F" transform="matrix(1.00, 0.00, -0.00, -1.00, 634.7, 436.7)">i</text><text xml:space="preserve" font-family="GillSans,Gill Sans" font-size="29.1" fill="#60605F" transform="matrix(1.00, 0.00, -0.00, -1.00, 641.1, 436.7)">n</text><text xml:space="preserve" font-family="GillSans,Gill Sans" font-size="29.1" fill="#60605F" transform="matrix(1.00, 0.00, -0.00, -1.00, 655.6, 436.7)">o</text><text xml:space="preserve" font-family="GillSans,Gill Sans" font-size="29.1" fill="#60605F" transform="matrix(1.00, 0.00, -0.00, -1.00, 671.7, 436.7)"> </text><text xml:space="preserve" font-family="GillSans,Gill Sans" font-size="29.1" fill="#60605F" transform="matrix(1.00, 0.00, -0.00, -1.00, 675.4, 436.7)">Y</text><text xml:space="preserve" font-family="GillSans,Gill Sans" font-size="29.1" fill="#60605F" transform="matrix(1.00, 0.00, -0.00, -1.00, 693.0, 436.7)">ú</text><text xml:space="preserve" font-family="GillSans,Gill Sans" font-size="29.1" fill="#60605F" transform="matrix(1.00, 0.00, -0.00, -1.00, 707.5, 436.7)">n</text><text xml:space="preserve" font-family="GillSans,Gill Sans" font-size="29.1" fill="#60605F" transform="matrix(1.00, 0.00, -0.00, -1.00, 722.1, 436.7)"> </text><text xml:space="preserve" font-family="GillSans,Gill Sans" font-size="29.1" fill="#60605F" transform="matrix(1.00, 0.00, -0.00, -1.00, 730.1, 436.7)">(</text><text xml:space="preserve" font-family="GillSans,Gill Sans" font-size="29.1" fill="#60605F" transform="matrix(1.00, 0.00, -0.00, -1.00, 739.5, 436.7)">m</text><text xml:space="preserve" font-family="GillSans,Gill Sans" font-size="29.1" fill="#60605F" transform="matrix(1.00, 0.00, -0.00, -1.00, 762.0, 436.7)">i</text><text xml:space="preserve" font-family="GillSans,Gill Sans" font-size="29.1" fill="#60605F" transform="matrix(1.00, 0.00, -0.00, -1.00, 768.4, 436.7)">c</text><text xml:space="preserve" font-family="GillSans,Gill Sans" font-size="29.1" fill="#60605F" transform="matrix(1.00, 0.00, -0.00, -1.00, 781.1, 436.7)">r</text><text xml:space="preserve" font-family="GillSans,Gill Sans" font-size="29.1" fill="#60605F" transform="matrix(1.00, 0.00, -0.00, -1.00, 791.9, 436.7)">o</text><text xml:space="preserve" font-family="GillSans,Gill Sans" font-size="29.1" fill="#60605F" transform="matrix(1.00, 0.00, -0.00, -1.00, 808.0, 436.7)">c</text><text xml:space="preserve" font-family="GillSans,Gill Sans" font-size="29.1" fill="#60605F" transform="matrix(1.00, 0.00, -0.00, -1.00, 820.7, 436.7)">o</text><text xml:space="preserve" font-family="GillSans,Gill Sans" font-size="29.1" fill="#60605F" transform="matrix(1.00, 0.00, -0.00, -1.00, 836.8, 436.7)">n</text><text xml:space="preserve" font-family="GillSans,Gill Sans" font-size="29.1" fill="#60605F" transform="matrix(1.00, 0.00, -0.00, -1.00, 851.3, 436.7)">t</text><text xml:space="preserve" font-family="GillSans,Gill Sans" font-size="29.1" fill="#60605F" transform="matrix(1.00, 0.00, -0.00, -1.00, 861.0, 436.7)">r</text><text xml:space="preserve" font-family="GillSans,Gill Sans" font-size="29.1" fill="#60605F" transform="matrix(1.00, 0.00, -0.00, -1.00, 871.8, 436.7)">o</text><text xml:space="preserve" font-family="GillSans,Gill Sans" font-size="29.1" fill="#60605F" transform="matrix(1.00, 0.00, -0.00, -1.00, 887.8, 436.7)">l</text><text xml:space="preserve" font-family="GillSans,Gill Sans" font-size="29.1" fill="#60605F" transform="matrix(1.00, 0.00, -0.00, -1.00, 894.2, 436.7)">l</text><text xml:space="preserve" font-family="GillSans,Gill Sans" font-size="29.1" fill="#60605F" transform="matrix(1.00, 0.00, -0.00, -1.00, 900.6, 436.7)">e</text><text xml:space="preserve" font-family="GillSans,Gill Sans" font-size="29.1" fill="#60605F" transform="matrix(1.00, 0.00, -0.00, -1.00, 914.6, 436.7)">r</text><text xml:space="preserve" font-family="GillSans,Gill Sans" font-size="29.1" fill="#60605F" transform="matrix(1.00, 0.00, -0.00, -1.00, 926.1, 436.7)">)</text><text xml:space="preserve" font-family="GillSans,Gill Sans" font-size="29.1" fill="#60605F" transform="matrix(1.00, 0.00, -0.00, -1.00, 935.5, 436.7)">	</text><text xml:space="preserve" font-family="GillSans,Gill Sans" font-size="29.1" fill="#60605F" transform="matrix(1.00, 0.00, -0.00, -1.00, 963.5, 436.7)">
</text><text xml:space="preserve" font-family="GillSans,Gill Sans" font-size="29.1" fill="#60605F" transform="matrix(1.00, 0.00, -0.00, -1.00, 963.5, 436.7)"></text><text xml:space="preserve" font-family="GillSans,Gill Sans" font-size="29.1" fill="#A1A1A1" transform="matrix(1.00, 0.00, -0.00, -1.00, 538.0, 371.6)">2</text><text xml:space="preserve" font-family="GillSans,Gill Sans" font-size="29.1" fill="#A1A1A1" transform="matrix(1.00, 0.00, -0.00, -1.00, 552.5, 371.6)">.</text><text xml:space="preserve" font-family="GillSans,Gill Sans" font-size="29.1" fill="#60605F" transform="matrix(1.00, 0.00, -0.00, -1.00, 574.8, 371.6)">R</text><text xml:space="preserve" font-family="GillSans,Gill Sans" font-size="29.1" fill="#60605F" transform="matrix(1.00, 0.00, -0.00, -1.00, 592.4, 371.6)">a</text><text xml:space="preserve" font-family="GillSans,Gill Sans" font-size="29.1" fill="#60605F" transform="matrix(1.00, 0.00, -0.00, -1.00, 604.8, 371.6)">i</text><text xml:space="preserve" font-family="GillSans,Gill Sans" font-size="29.1" fill="#60605F" transform="matrix(1.00, 0.00, -0.00, -1.00, 611.2, 371.6)">n</text><text xml:space="preserve" font-family="GillSans,Gill Sans" font-size="29.1" fill="#60605F" transform="matrix(1.00, 0.00, -0.00, -1.00, 625.7, 371.6)"> </text><text xml:space="preserve" font-family="GillSans,Gill Sans" font-size="29.1" fill="#60605F" transform="matrix(1.00, 0.00, -0.00, -1.00, 633.8, 371.6)">D</text><text xml:space="preserve" font-family="GillSans,Gill Sans" font-size="29.1" fill="#60605F" transform="matrix(1.00, 0.00, -0.00, -1.00, 655.6, 371.6)">e</text><text xml:space="preserve" font-family="GillSans,Gill Sans" font-size="29.1" fill="#60605F" transform="matrix(1.00, 0.00, -0.00, -1.00, 669.6, 371.6)">t</text><text xml:space="preserve" font-family="GillSans,Gill Sans" font-size="29.1" fill="#60605F" transform="matrix(1.00, 0.00, -0.00, -1.00, 679.3, 371.6)">e</text><text xml:space="preserve" font-family="GillSans,Gill Sans" font-size="29.1" fill="#60605F" transform="matrix(1.00, 0.00, -0.00, -1.00, 693.2, 371.6)">c</text><text xml:space="preserve" font-family="GillSans,Gill Sans" font-size="29.1" fill="#60605F" transform="matrix(1.00, 0.00, -0.00, -1.00, 705.9, 371.6)">t</text><text xml:space="preserve" font-family="GillSans,Gill Sans" font-size="29.1" fill="#60605F" transform="matrix(1.00, 0.00, -0.00, -1.00, 715.6, 371.6)">o</text><text xml:space="preserve" font-family="GillSans,Gill Sans" font-size="29.1" fill="#60605F" transform="matrix(1.00, 0.00, -0.00, -1.00, 731.7, 371.6)">r</text><text xml:space="preserve" font-family="GillSans,Gill Sans" font-size="29.1" fill="#60605F" transform="matrix(1.00, 0.00, -0.00, -1.00, 743.2, 371.6)"> </text><text xml:space="preserve" font-family="GillSans,Gill Sans" font-size="29.1" fill="#60605F" transform="matrix(1.00, 0.00, -0.00, -1.00, 751.3, 371.6)">(</text><text xml:space="preserve" font-family="GillSans,Gill Sans" font-size="29.1" fill="#60605F" transform="matrix(1.00, 0.00, -0.00, -1.00, 760.7, 371.6)">P</text><text xml:space="preserve" font-family="GillSans,Gill Sans" font-size="29.1" fill="#60605F" transform="matrix(1.00, 0.00, -0.00, -1.00, 775.5, 371.6)">r</text><text xml:space="preserve" font-family="GillSans,Gill Sans" font-size="29.1" fill="#60605F" transform="matrix(1.00, 0.00, -0.00, -1.00, 786.5, 371.6)">e</text><text xml:space="preserve" font-family="GillSans,Gill Sans" font-size="29.1" fill="#60605F" transform="matrix(1.00, 0.00, -0.00, -1.00, 800.4, 371.6)">c</text><text xml:space="preserve" font-family="GillSans,Gill Sans" font-size="29.1" fill="#60605F" transform="matrix(1.00, 0.00, -0.00, -1.00, 813.2, 371.6)">i</text><text xml:space="preserve" font-family="GillSans,Gill Sans" font-size="29.1" fill="#60605F" transform="matrix(1.00, 0.00, -0.00, -1.00, 819.5, 371.6)">p</text><text xml:space="preserve" font-family="GillSans,Gill Sans" font-size="29.1" fill="#60605F" transform="matrix(1.00, 0.00, -0.00, -1.00, 834.1, 371.6)">i</text><text xml:space="preserve" font-family="GillSans,Gill Sans" font-size="29.1" fill="#60605F" transform="matrix(1.00, 0.00, -0.00, -1.00, 840.5, 371.6)">t</text><text xml:space="preserve" font-family="GillSans,Gill Sans" font-size="29.1" fill="#60605F" transform="matrix(1.00, 0.00, -0.00, -1.00, 850.2, 371.6)">a</text><text xml:space="preserve" font-family="GillSans,Gill Sans" font-size="29.1" fill="#60605F" transform="matrix(1.00, 0.00, -0.00, -1.00, 862.6, 371.6)">t</text><text xml:space="preserve" font-family="GillSans,Gill Sans" font-size="29.1" fill="#60605F" transform="matrix(1.00, 0.00, -0.00, -1.00, 872.3, 371.6)">i</text><text xml:space="preserve" font-family="GillSans,Gill Sans" font-size="29.1" fill="#60605F" transform="matrix(1.00, 0.00, -0.00, -1.00, 878.7, 371.6)">o</text><text xml:space="preserve" font-family="GillSans,Gill Sans" font-size="29.1" fill="#60605F" transform="matrix(1.00, 0.00, -0.00, -1.00, 894.7, 371.6)">n</text><text xml:space="preserve" font-family="GillSans,Gill Sans" font-size="29.1" fill="#60605F" transform="matrix(1.00, 0.00, -0.00, -1.00, 909.3, 371.6)">)</text><text xml:space="preserve" font-family="GillSans,Gill Sans" font-size="29.1" fill="#60605F" transform="matrix(1.00, 0.00, -0.00, -1.00, 918.7, 371.6)">	</text><text xml:space="preserve" font-family="GillSans,Gill Sans" font-size="29.1" fill="#60605F" transform="matrix(1.00, 0.00, -0.00, -1.00, 946.7, 371.6)">
</text><text xml:space="preserve" font-family="GillSans,Gill Sans" font-size="29.1" fill="#60605F" transform="matrix(1.00, 0.00, -0.00, -1.00, 946.7, 371.6)"></text><text xml:space="preserve" font-family="GillSans,Gill Sans" font-size="29.1" fill="#A1A1A1" transform="matrix(1.00, 0.00, -0.00, -1.00, 538.0, 306.6)">3</text><text xml:space="preserve" font-family="GillSans,Gill Sans" font-size="29.1" fill="#A1A1A1" transform="matrix(1.00, 0.00, -0.00, -1.00, 552.5, 306.6)">.</text><text xml:space="preserve" font-family="GillSans,Gill Sans" font-size="29.1" fill="#60605F" transform="matrix(1.00, 0.00, -0.00, -1.00, 574.8, 306.6)">S</text><text xml:space="preserve" font-family="GillSans,Gill Sans" font-size="29.1" fill="#60605F" transform="matrix(1.00, 0.00, -0.00, -1.00, 588.1, 306.6)">o</text><text xml:space="preserve" font-family="GillSans,Gill Sans" font-size="29.1" fill="#60605F" transform="matrix(1.00, 0.00, -0.00, -1.00, 604.2, 306.6)">i</text><text xml:space="preserve" font-family="GillSans,Gill Sans" font-size="29.1" fill="#60605F" transform="matrix(1.00, 0.00, -0.00, -1.00, 610.6, 306.6)">l</text><text xml:space="preserve" font-family="GillSans,Gill Sans" font-size="29.1" fill="#60605F" transform="matrix(1.00, 0.00, -0.00, -1.00, 617.0, 306.6)"> </text><text xml:space="preserve" font-family="GillSans,Gill Sans" font-size="29.1" fill="#60605F" transform="matrix(1.00, 0.00, -0.00, -1.00, 625.0, 306.6)">M</text><text xml:space="preserve" font-family="GillSans,Gill Sans" font-size="29.1" fill="#60605F" transform="matrix(1.00, 0.00, -0.00, -1.00, 647.7, 306.6)">o</text><text xml:space="preserve" font-family="GillSans,Gill Sans" font-size="29.1" fill="#60605F" transform="matrix(1.00, 0.00, -0.00, -1.00, 663.8, 306.6)">i</text><text xml:space="preserve" font-family="GillSans,Gill Sans" font-size="29.1" fill="#60605F" transform="matrix(1.00, 0.00, -0.00, -1.00, 670.2, 306.6)">s</text><text xml:space="preserve" font-family="GillSans,Gill Sans" font-size="29.1" fill="#60605F" transform="matrix(1.00, 0.00, -0.00, -1.00, 681.4, 306.6)">t</text><text xml:space="preserve" font-family="GillSans,Gill Sans" font-size="29.1" fill="#60605F" transform="matrix(1.00, 0.00, -0.00, -1.00, 691.1, 306.6)">u</text><text xml:space="preserve" font-family="GillSans,Gill Sans" font-size="29.1" fill="#60605F" transform="matrix(1.00, 0.00, -0.00, -1.00, 705.6, 306.6)">r</text><text xml:space="preserve" font-family="GillSans,Gill Sans" font-size="29.1" fill="#60605F" transform="matrix(1.00, 0.00, -0.00, -1.00, 716.6, 306.6)">e</text><text xml:space="preserve" font-family="GillSans,Gill Sans" font-size="29.1" fill="#60605F" transform="matrix(1.00, 0.00, -0.00, -1.00, 730.5, 306.6)"> </text><text xml:space="preserve" font-family="GillSans,Gill Sans" font-size="29.1" fill="#60605F" transform="matrix(1.00, 0.00, -0.00, -1.00, 738.6, 306.6)">S</text><text xml:space="preserve" font-family="GillSans,Gill Sans" font-size="29.1" fill="#60605F" transform="matrix(1.00, 0.00, -0.00, -1.00, 751.9, 306.6)">e</text><text xml:space="preserve" font-family="GillSans,Gill Sans" font-size="29.1" fill="#60605F" transform="matrix(1.00, 0.00, -0.00, -1.00, 765.8, 306.6)">n</text><text xml:space="preserve" font-family="GillSans,Gill Sans" font-size="29.1" fill="#60605F" transform="matrix(1.00, 0.00, -0.00, -1.00, 780.4, 306.6)">s</text><text xml:space="preserve" font-family="GillSans,Gill Sans" font-size="29.1" fill="#60605F" transform="matrix(1.00, 0.00, -0.00, -1.00, 791.6, 306.6)">o</text><text xml:space="preserve" font-family="GillSans,Gill Sans" font-size="29.1" fill="#60605F" transform="matrix(1.00, 0.00, -0.00, -1.00, 807.6, 306.6)">r</text><text xml:space="preserve" font-family="GillSans,Gill Sans" font-size="29.1" fill="#60605F" transform="matrix(1.00, 0.00, -0.00, -1.00, 819.2, 306.6)">	</text><text xml:space="preserve" font-family="GillSans,Gill Sans" font-size="29.1" fill="#60605F" transform="matrix(1.00, 0.00, -0.00, -1.00, 847.2, 306.6)">
</text><text xml:space="preserve" font-family="GillSans,Gill Sans" font-size="29.1" fill="#60605F" transform="matrix(1.00, 0.00, -0.00, -1.00, 847.2, 306.6)"></text><text xml:space="preserve" font-family="GillSans,Gill Sans" font-size="29.1" fill="#A1A1A1" transform="matrix(1.00, 0.00, -0.00, -1.00, 538.0, 241.5)">4</text><text xml:space="preserve" font-family="GillSans,Gill Sans" font-size="29.1" fill="#A1A1A1" transform="matrix(1.00, 0.00, -0.00, -1.00, 552.5, 241.5)">.</text><text xml:space="preserve" font-family="GillSans,Gill Sans" font-size="29.1" fill="#60605F" transform="matrix(1.00, 0.00, -0.00, -1.00, 574.8, 241.5)">T</text><text xml:space="preserve" font-family="GillSans,Gill Sans" font-size="29.1" fill="#60605F" transform="matrix(1.00, 0.00, -0.00, -1.00, 588.0, 241.5)">e</text><text xml:space="preserve" font-family="GillSans,Gill Sans" font-size="29.1" fill="#60605F" transform="matrix(1.00, 0.00, -0.00, -1.00, 602.0, 241.5)">m</text><text xml:space="preserve" font-family="GillSans,Gill Sans" font-size="29.1" fill="#60605F" transform="matrix(1.00, 0.00, -0.00, -1.00, 624.4, 241.5)">p</text><text xml:space="preserve" font-family="GillSans,Gill Sans" font-size="29.1" fill="#60605F" transform="matrix(1.00, 0.00, -0.00, -1.00, 638.9, 241.5)">e</text><text xml:space="preserve" font-family="GillSans,Gill Sans" font-size="29.1" fill="#60605F" transform="matrix(1.00, 0.00, -0.00, -1.00, 652.9, 241.5)">r</text><text xml:space="preserve" font-family="GillSans,Gill Sans" font-size="29.1" fill="#60605F" transform="matrix(1.00, 0.00, -0.00, -1.00, 664.4, 241.5)">a</text><text xml:space="preserve" font-family="GillSans,Gill Sans" font-size="29.1" fill="#60605F" transform="matrix(1.00, 0.00, -0.00, -1.00, 676.8, 241.5)">t</text><text xml:space="preserve" font-family="GillSans,Gill Sans" font-size="29.1" fill="#60605F" transform="matrix(1.00, 0.00, -0.00, -1.00, 686.5, 241.5)">u</text><text xml:space="preserve" font-family="GillSans,Gill Sans" font-size="29.1" fill="#60605F" transform="matrix(1.00, 0.00, -0.00, -1.00, 701.1, 241.5)">r</text><text xml:space="preserve" font-family="GillSans,Gill Sans" font-size="29.1" fill="#60605F" transform="matrix(1.00, 0.00, -0.00, -1.00, 712.0, 241.5)">e</text><text xml:space="preserve" font-family="GillSans,Gill Sans" font-size="29.1" fill="#60605F" transform="matrix(1.00, 0.00, -0.00, -1.00, 725.9, 241.5)"> </text><text xml:space="preserve" font-family="GillSans,Gill Sans" font-size="29.1" fill="#60605F" transform="matrix(1.00, 0.00, -0.00, -1.00, 734.0, 241.5)">+</text><text xml:space="preserve" font-family="GillSans,Gill Sans" font-size="29.1" fill="#60605F" transform="matrix(1.00, 0.00, -0.00, -1.00, 751.0, 241.5)"> </text><text xml:space="preserve" font-family="GillSans,Gill Sans" font-size="29.1" fill="#60605F" transform="matrix(1.00, 0.00, -0.00, -1.00, 759.1, 241.5)">H</text><text xml:space="preserve" font-family="GillSans,Gill Sans" font-size="29.1" fill="#60605F" transform="matrix(1.00, 0.00, -0.00, -1.00, 780.3, 241.5)">u</text><text xml:space="preserve" font-family="GillSans,Gill Sans" font-size="29.1" fill="#60605F" transform="matrix(1.00, 0.00, -0.00, -1.00, 794.9, 241.5)">m</text><text xml:space="preserve" font-family="GillSans,Gill Sans" font-size="29.1" fill="#60605F" transform="matrix(1.00, 0.00, -0.00, -1.00, 817.3, 241.5)">i</text><text xml:space="preserve" font-family="GillSans,Gill Sans" font-size="29.1" fill="#60605F" transform="matrix(1.00, 0.00, -0.00, -1.00, 823.7, 241.5)">d</text><text xml:space="preserve" font-family="GillSans,Gill Sans" font-size="29.1" fill="#60605F" transform="matrix(1.00, 0.00, -0.00, -1.00, 838.5, 241.5)">i</text><text xml:space="preserve" font-family="GillSans,Gill Sans" font-size="29.1" fill="#60605F" transform="matrix(1.00, 0.00, -0.00, -1.00, 844.9, 241.5)">t</text><text xml:space="preserve" font-family="GillSans,Gill Sans" font-size="29.1" fill="#60605F" transform="matrix(1.00, 0.00, -0.00, -1.00, 854.6, 241.5)">y</text><text xml:space="preserve" font-family="GillSans,Gill Sans" font-size="29.1" fill="#60605F" transform="matrix(1.00, 0.00, -0.00, -1.00, 867.3, 241.5)"> </text><text xml:space="preserve" font-family="GillSans,Gill Sans" font-size="29.1" fill="#60605F" transform="matrix(1.00, 0.00, -0.00, -1.00, 875.4, 241.5)">S</text><text xml:space="preserve" font-family="GillSans,Gill Sans" font-size="29.1" fill="#60605F" transform="matrix(1.00, 0.00, -0.00, -1.00, 888.7, 241.5)">e</text><text xml:space="preserve" font-family="GillSans,Gill Sans" font-size="29.1" fill="#60605F" transform="matrix(1.00, 0.00, -0.00, -1.00, 902.7, 241.5)">n</text><text xml:space="preserve" font-family="GillSans,Gill Sans" font-size="29.1" fill="#60605F" transform="matrix(1.00, 0.00, -0.00, -1.00, 917.2, 241.5)">s</text><text xml:space="preserve" font-family="GillSans,Gill Sans" font-size="29.1" fill="#60605F" transform="matrix(1.00, 0.00, -0.00, -1.00, 928.4, 241.5)">o</text><text xml:space="preserve" font-family="GillSans,Gill Sans" font-size="29.1" fill="#60605F" transform="matrix(1.00, 0.00, -0.00, -1.00, 944.5, 241.5)">r</text><text xml:space="preserve" font-family="GillSans,Gill Sans" font-size="29.1" fill="#60605F" transform="matrix(1.00, 0.00, -0.00, -1.00, 956.0, 241.5)">	</text><text xml:space="preserve" font-family="GillSans,Gill Sans" font-size="29.1" fill="#60605F" transform="matrix(1.00, 0.00, -0.00, -1.00, 984.0, 241.5)">
</text><text xml:space="preserve" font-family="GillSans,Gill Sans" font-size="29.1" fill="#60605F" transform="matrix(1.00, 0.00, -0.00, -1.00, 984.0, 241.5)"></text><text xml:space="preserve" font-family="GillSans,Gill Sans" font-size="29.1" fill="#A1A1A1" transform="matrix(1.00, 0.00, -0.00, -1.00, 538.0, 176.5)">5</text><text xml:space="preserve" font-family="GillSans,Gill Sans" font-size="29.1" fill="#A1A1A1" transform="matrix(1.00, 0.00, -0.00, -1.00, 552.5, 176.5)">.</text><text xml:space="preserve" font-family="GillSans,Gill Sans" font-size="29.1" fill="#60605F" transform="matrix(1.00, 0.00, -0.00, -1.00, 574.8, 176.5)">S</text><text xml:space="preserve" font-family="GillSans,Gill Sans" font-size="29.1" fill="#60605F" transform="matrix(1.00, 0.00, -0.00, -1.00, 588.1, 176.5)">u</text><text xml:space="preserve" font-family="GillSans,Gill Sans" font-size="29.1" fill="#60605F" transform="matrix(1.00, 0.00, -0.00, -1.00, 602.7, 176.5)">n</text><text xml:space="preserve" font-family="GillSans,Gill Sans" font-size="29.1" fill="#60605F" transform="matrix(1.00, 0.00, -0.00, -1.00, 617.2, 176.5)">l</text><text xml:space="preserve" font-family="GillSans,Gill Sans" font-size="29.1" fill="#60605F" transform="matrix(1.00, 0.00, -0.00, -1.00, 623.6, 176.5)">i</text><text xml:space="preserve" font-family="GillSans,Gill Sans" font-size="29.1" fill="#60605F" transform="matrix(1.00, 0.00, -0.00, -1.00, 630.0, 176.5)">g</text><text xml:space="preserve" font-family="GillSans,Gill Sans" font-size="29.1" fill="#60605F" transform="matrix(1.00, 0.00, -0.00, -1.00, 642.4, 176.5)">h</text><text xml:space="preserve" font-family="GillSans,Gill Sans" font-size="29.1" fill="#60605F" transform="matrix(1.00, 0.00, -0.00, -1.00, 657.0, 176.5)">t</text><text xml:space="preserve" font-family="GillSans,Gill Sans" font-size="29.1" fill="#60605F" transform="matrix(1.00, 0.00, -0.00, -1.00, 666.7, 176.5)"> </text><text xml:space="preserve" font-family="GillSans,Gill Sans" font-size="29.1" fill="#60605F" transform="matrix(1.00, 0.00, -0.00, -1.00, 674.7, 176.5)">s</text><text xml:space="preserve" font-family="GillSans,Gill Sans" font-size="29.1" fill="#60605F" transform="matrix(1.00, 0.00, -0.00, -1.00, 685.9, 176.5)">e</text><text xml:space="preserve" font-family="GillSans,Gill Sans" font-size="29.1" fill="#60605F" transform="matrix(1.00, 0.00, -0.00, -1.00, 699.9, 176.5)">n</text><text xml:space="preserve" font-family="GillSans,Gill Sans" font-size="29.1" fill="#60605F" transform="matrix(1.00, 0.00, -0.00, -1.00, 714.4, 176.5)">s</text><text xml:space="preserve" font-family="GillSans,Gill Sans" font-size="29.1" fill="#60605F" transform="matrix(1.00, 0.00, -0.00, -1.00, 725.6, 176.5)">o</text><text xml:space="preserve" font-family="GillSans,Gill Sans" font-size="29.1" fill="#60605F" transform="matrix(1.00, 0.00, -0.00, -1.00, 741.7, 176.5)">r</text><text xml:space="preserve" font-family="GillSans,Gill Sans" font-size="29.1" fill="#60605F" transform="matrix(1.00, 0.00, -0.00, -1.00, 753.2, 176.5)">	</text><text xml:space="preserve" font-family="GillSans,Gill Sans" font-size="29.1" fill="#60605F" transform="matrix(1.00, 0.00, -0.00, -1.00, 781.2, 176.5)">
</text><text xml:space="preserve" font-family="GillSans,Gill Sans" font-size="29.1" fill="#60605F" transform="matrix(1.00, 0.00, -0.00, -1.00, 781.2, 176.5)"></text><text xml:space="preserve" font-family="GillSans,Gill Sans" font-size="29.1" fill="#A1A1A1" transform="matrix(1.00, 0.00, -0.00, -1.00, 538.0, 111.5)">6</text><text xml:space="preserve" font-family="GillSans,Gill Sans" font-size="29.1" fill="#A1A1A1" transform="matrix(1.00, 0.00, -0.00, -1.00, 552.5, 111.5)">.</text><text xml:space="preserve" font-family="GillSans,Gill Sans" font-size="29.1" fill="#60605F" transform="matrix(1.00, 0.00, -0.00, -1.00, 574.8, 111.5)">S</text><text xml:space="preserve" font-family="GillSans,Gill Sans" font-size="29.1" fill="#60605F" transform="matrix(1.00, 0.00, -0.00, -1.00, 588.1, 111.5)">D</text><text xml:space="preserve" font-family="GillSans,Gill Sans" font-size="29.1" fill="#60605F" transform="matrix(1.00, 0.00, -0.00, -1.00, 610.0, 111.5)"> </text><text xml:space="preserve" font-family="GillSans,Gill Sans" font-size="29.1" fill="#60605F" transform="matrix(1.00, 0.00, -0.00, -1.00, 618.0, 111.5)">C</text><text xml:space="preserve" font-family="GillSans,Gill Sans" font-size="29.1" fill="#60605F" transform="matrix(1.00, 0.00, -0.00, -1.00, 638.6, 111.5)">a</text><text xml:space="preserve" font-family="GillSans,Gill Sans" font-size="29.1" fill="#60605F" transform="matrix(1.00, 0.00, -0.00, -1.00, 651.1, 111.5)">r</text><text xml:space="preserve" font-family="GillSans,Gill Sans" font-size="29.1" fill="#60605F" transform="matrix(1.00, 0.00, -0.00, -1.00, 662.1, 111.5)">d</text><text xml:space="preserve" font-family="GillSans,Gill Sans" font-size="29.1" fill="#60605F" transform="matrix(1.00, 0.00, -0.00, -1.00, 677.0, 111.5)"> </text><text xml:space="preserve" font-family="GillSans,Gill Sans" font-size="29.1" fill="#60605F" transform="matrix(1.00, 0.00, -0.00, -1.00, 685.0, 111.5)">-</text><text xml:space="preserve" font-family="GillSans,Gill Sans" font-size="29.1" fill="#60605F" transform="matrix(1.00, 0.00, -0.00, -1.00, 694.5, 111.5)"> </text><text xml:space="preserve" font-family="GillSans,Gill Sans" font-size="29.1" fill="#60605F" transform="matrix(1.00, 0.00, -0.00, -1.00, 702.5, 111.5)">E</text><text xml:space="preserve" font-family="GillSans,Gill Sans" font-size="29.1" fill="#60605F" transform="matrix(1.00, 0.00, -0.00, -1.00, 717.1, 111.5)">x</text><text xml:space="preserve" font-family="GillSans,Gill Sans" font-size="29.1" fill="#60605F" transform="matrix(1.00, 0.00, -0.00, -1.00, 731.6, 111.5)">t</text><text xml:space="preserve" font-family="GillSans,Gill Sans" font-size="29.1" fill="#60605F" transform="matrix(1.00, 0.00, -0.00, -1.00, 741.3, 111.5)">e</text><text xml:space="preserve" font-family="GillSans,Gill Sans" font-size="29.1" fill="#60605F" transform="matrix(1.00, 0.00, -0.00, -1.00, 755.3, 111.5)">r</text><text xml:space="preserve" font-family="GillSans,Gill Sans" font-size="29.1" fill="#60605F" transform="matrix(1.00, 0.00, -0.00, -1.00, 766.8, 111.5)">n</text><text xml:space="preserve" font-family="GillSans,Gill Sans" font-size="29.1" fill="#60605F" transform="matrix(1.00, 0.00, -0.00, -1.00, 781.3, 111.5)">a</text><text xml:space="preserve" font-family="GillSans,Gill Sans" font-size="29.1" fill="#60605F" transform="matrix(1.00, 0.00, -0.00, -1.00, 793.7, 111.5)">l</text><text xml:space="preserve" font-family="GillSans,Gill Sans" font-size="29.1" fill="#60605F" transform="matrix(1.00, 0.00, -0.00, -1.00, 800.1, 111.5)"> </text><text xml:space="preserve" font-family="GillSans,Gill Sans" font-size="29.1" fill="#60605F" transform="matrix(1.00, 0.00, -0.00, -1.00, 808.2, 111.5)">B</text><text xml:space="preserve" font-family="GillSans,Gill Sans" font-size="29.1" fill="#60605F" transform="matrix(1.00, 0.00, -0.00, -1.00, 824.6, 111.5)">a</text><text xml:space="preserve" font-family="GillSans,Gill Sans" font-size="29.1" fill="#60605F" transform="matrix(1.00, 0.00, -0.00, -1.00, 837.0, 111.5)">t</text><text xml:space="preserve" font-family="GillSans,Gill Sans" font-size="29.1" fill="#60605F" transform="matrix(1.00, 0.00, -0.00, -1.00, 846.7, 111.5)">t</text><text xml:space="preserve" font-family="GillSans,Gill Sans" font-size="29.1" fill="#60605F" transform="matrix(1.00, 0.00, -0.00, -1.00, 856.4, 111.5)">e</text><text xml:space="preserve" font-family="GillSans,Gill Sans" font-size="29.1" fill="#60605F" transform="matrix(1.00, 0.00, -0.00, -1.00, 870.3, 111.5)">r</text><text xml:space="preserve" font-family="GillSans,Gill Sans" font-size="29.1" fill="#60605F" transform="matrix(1.00, 0.00, -0.00, -1.00, 882.7, 111.5)">y</text><text xml:space="preserve" font-family="GillSans,Gill Sans" font-size="29.1" fill="#60605F" transform="matrix(1.00, 0.00, -0.00, -1.00, 895.5, 111.5)"> </text><text xml:space="preserve" font-family="GillSans,Gill Sans" font-size="29.1" fill="#60605F" transform="matrix(1.00, 0.00, -0.00, -1.00, 903.5, 111.5)">-</text><text xml:space="preserve" font-family="GillSans,Gill Sans" font-size="29.1" fill="#60605F" transform="matrix(1.00, 0.00, -0.00, -1.00, 913.0, 111.5)"> </text><text xml:space="preserve" font-family="GillSans,Gill Sans" font-size="29.1" fill="#60605F" transform="matrix(1.00, 0.00, -0.00, -1.00, 921.0, 111.5)">C</text><text xml:space="preserve" font-family="GillSans,Gill Sans" font-size="29.1" fill="#60605F" transform="matrix(1.00, 0.00, -0.00, -1.00, 941.6, 111.5)">a</text><text xml:space="preserve" font-family="GillSans,Gill Sans" font-size="29.1" fill="#60605F" transform="matrix(1.00, 0.00, -0.00, -1.00, 954.1, 111.5)">s</text><text xml:space="preserve" font-family="GillSans,Gill Sans" font-size="29.1" fill="#60605F" transform="matrix(1.00, 0.00, -0.00, -1.00, 965.2, 111.5)">e</text></g></svg>