<?xml version="1.0" encoding="UTF-8" standalone="no"?><svg xmlns="http://www.w3.org/2000/svg" xmlns:xlink="http://www.w3.org/1999/xlink" clip-rule="evenodd" stroke-miterlimit="10" viewBox="0 0 1024 768"><desc>SVG generated by Keynote</desc><defs><pattern id="patternP1" patternUnits="userSpaceOnUse" width="512" height="512" viewBox="0 0 512 512"><image xlink:href="../../69BA7FB1-ECE5-4D12-A957-4A6A57C89A10/assets/FA2E073AFADFA45400BFBD57DF489572.jpeg" width="512.00" height="512.00"></image></pattern></defs><g transform="matrix(1.00, 0.00, -0.00, -1.00, 0.0, 768.0)"><g><clipPath id="clip0x6000014af2a0"><path d="M 0.0 768.0 L 1024.0 768.0 L 1024.0 0.0 L 0.0 0.0 Z M 0.0 768.0 "></path></clipPath><g clip-path="url(#clip0x6000014af2a0)"><path d="M 0.0 0.0 L 1024.0 0.0 L 1024.0 768.0 L 0.0 768.0 Z M 0.0 0.0 " fill="url(#patternP1)"></path></g></g><g opacity="0.30"><g><clipPath id="clip0x6000014a50a0"><path d="M 39.0 563.0 L 985.0 563.0 L 985.0 567.0 L 39.0 567.0 Z M 39.0 563.0 "></path></clipPath><g clip-path="url(#clip0x6000014a50a0)"><path d="M 0.0 0.5 L 944.0 0.5 L 944.0 0.5 L 0.0 0.5 Z M 0.0 0.0 " fill="none" stroke="#434343" stroke-width="1.00" transform="matrix(1.00, 0.00, 0.00, -1.00, 40.0, 565.0)"></path></g></g></g><g opacity="0.30"><g><clipPath id="clip0x600000caa020"><path d="M 39.0 36.0 L 985.0 36.0 L 985.0 45.0 L 39.0 45.0 Z M 39.0 36.0 "></path></clipPath><g clip-path="url(#clip0x600000caa020)"><path d="M 0.0 0.0 L 944.0 0.0 L 944.0 0.0 L 0.0 0.0 Z M 0.0 0.0 " fill="none" stroke="#434343" stroke-width="6.00" transform="matrix(1.00, 0.00, 0.00, -1.00, 40.0, 40.0)"></path></g></g></g><g opacity="0.30"><g><clipPath id="clip0x6000014b8ba0"><path d="M 39.0 726.0 L 985.0 726.0 L 985.0 730.0 L 39.0 730.0 Z M 39.0 726.0 "></path></clipPath><g clip-path="url(#clip0x6000014b8ba0)"><path d="M 0.0 0.5 L 944.0 0.5 L 944.0 0.5 L 0.0 0.5 Z M 0.0 0.0 " fill="none" stroke="#434343" stroke-width="1.00" transform="matrix(1.00, 0.00, 0.00, -1.00, 40.0, 728.0)"></path></g></g></g><text xml:space="preserve" font-family="GillSans-Light,Gill Sans" font-size="64.0" fill="#60605F" transform="matrix(1.00, 0.00, -0.00, -1.00, 44.0, 625.2)">W</text><text xml:space="preserve" font-family="GillSans-Light,Gill Sans" font-size="64.0" fill="#60605F" transform="matrix(1.00, 0.00, -0.00, -1.00, 110.0, 625.2)">H</text><text xml:space="preserve" font-family="GillSans-Light,Gill Sans" font-size="64.0" fill="#60605F" transform="matrix(1.00, 0.00, -0.00, -1.00, 156.0, 625.2)">A</text><text xml:space="preserve" font-family="GillSans-Light,Gill Sans" font-size="64.0" fill="#60605F" transform="matrix(1.00, 0.00, -0.00, -1.00, 192.3, 625.2)">T</text><text xml:space="preserve" font-family="GillSans-Light,Gill Sans" font-size="64.0" fill="#60605F" transform="matrix(1.00, 0.00, -0.00, -1.00, 229.0, 625.2)"> </text><text xml:space="preserve" font-family="GillSans-Light,Gill Sans" font-size="64.0" fill="#60605F" transform="matrix(1.00, 0.00, -0.00, -1.00, 246.7, 625.2)">I</text><text xml:space="preserve" font-family="GillSans-Light,Gill Sans" font-size="64.0" fill="#60605F" transform="matrix(1.00, 0.00, -0.00, -1.00, 260.1, 625.2)">S</text><text xml:space="preserve" font-family="GillSans-Light,Gill Sans" font-size="64.0" fill="#60605F" transform="matrix(1.00, 0.00, -0.00, -1.00, 290.1, 625.2)"> </text><text xml:space="preserve" font-family="GillSans-Light,Gill Sans" font-size="64.0" fill="#60605F" transform="matrix(1.00, 0.00, -0.00, -1.00, 307.9, 625.2)">C</text><text xml:space="preserve" font-family="GillSans-Light,Gill Sans" font-size="64.0" fill="#60605F" transform="matrix(1.00, 0.00, -0.00, -1.00, 351.2, 625.2)">L</text><text xml:space="preserve" font-family="GillSans-Light,Gill Sans" font-size="64.0" fill="#60605F" transform="matrix(1.00, 0.00, -0.00, -1.00, 381.2, 625.2)">I</text><text xml:space="preserve" font-family="GillSans-Light,Gill Sans" font-size="64.0" fill="#60605F" transform="matrix(1.00, 0.00, -0.00, -1.00, 394.5, 625.2)">M</text><text xml:space="preserve" font-family="GillSans-Light,Gill Sans" font-size="64.0" fill="#60605F" transform="matrix(1.00, 0.00, -0.00, -1.00, 444.5, 625.2)">A</text><text xml:space="preserve" font-family="GillSans-Light,Gill Sans" font-size="64.0" fill="#60605F" transform="matrix(1.00, 0.00, -0.00, -1.00, 480.8, 625.2)">T</text><text xml:space="preserve" font-family="GillSans-Light,Gill Sans" font-size="64.0" fill="#60605F" transform="matrix(1.00, 0.00, -0.00, -1.00, 517.5, 625.2)">E</text><text xml:space="preserve" font-family="GillSans-Light,Gill Sans" font-size="64.0" fill="#60605F" transform="matrix(1.00, 0.00, -0.00, -1.00, 548.9, 625.2)">?</text><g><clipPath id="clip0x6000014a0180"><path d="M 42.8 348.5 L 56.9 348.5 L 56.9 334.5 L 42.8 334.5 Z M 42.8 348.5 "></path></clipPath><g clip-path="url(#clip0x6000014a0180)"><g><clipPath id="clip0x6000012bc920"><path d="M 44.0 335.7 L 55.7 335.7 L 55.7 347.4 L 44.0 347.4 Z M 44.0 335.7 "></path></clipPath><g clip-path="url(#clip0x6000012bc920)"><path d="M 55.7 335.7 L 44.0 335.7 L 44.0 347.4 L 55.7 347.4 Z M 55.7 335.7 " fill="#BDBDBD"></path></g></g></g></g><text xml:space="preserve" font-family="GillSans,Gill Sans" font-size="34.0" fill="#60605F" transform="matrix(1.00, 0.00, -0.00, -1.00, 77.0, 330.8)">C</text><text xml:space="preserve" font-family="GillSans,Gill Sans" font-size="34.0" fill="#60605F" transform="matrix(1.00, 0.00, -0.00, -1.00, 101.1, 330.8)">l</text><text xml:space="preserve" font-family="GillSans,Gill Sans" font-size="34.0" fill="#60605F" transform="matrix(1.00, 0.00, -0.00, -1.00, 108.5, 330.8)">i</text><text xml:space="preserve" font-family="GillSans,Gill Sans" font-size="34.0" fill="#60605F" transform="matrix(1.00, 0.00, -0.00, -1.00, 116.0, 330.8)">m</text><text xml:space="preserve" font-family="GillSans,Gill Sans" font-size="34.0" fill="#60605F" transform="matrix(1.00, 0.00, -0.00, -1.00, 142.2, 330.8)">a</text><text xml:space="preserve" font-family="GillSans,Gill Sans" font-size="34.0" fill="#60605F" transform="matrix(1.00, 0.00, -0.00, -1.00, 156.7, 330.8)">t</text><text xml:space="preserve" font-family="GillSans,Gill Sans" font-size="34.0" fill="#60605F" transform="matrix(1.00, 0.00, -0.00, -1.00, 168.0, 330.8)">e</text><text xml:space="preserve" font-family="GillSans,Gill Sans" font-size="34.0" fill="#60605F" transform="matrix(1.00, 0.00, -0.00, -1.00, 184.3, 330.8)"> </text><text xml:space="preserve" font-family="GillSans,Gill Sans" font-size="34.0" fill="#60605F" transform="matrix(1.00, 0.00, -0.00, -1.00, 193.8, 330.8)">i</text><text xml:space="preserve" font-family="GillSans,Gill Sans" font-size="34.0" fill="#60605F" transform="matrix(1.00, 0.00, -0.00, -1.00, 201.2, 330.8)">s</text><text xml:space="preserve" font-family="GillSans,Gill Sans" font-size="34.0" fill="#60605F" transform="matrix(1.00, 0.00, -0.00, -1.00, 214.3, 330.8)"> </text><text xml:space="preserve" font-family="GillSans,Gill Sans" font-size="34.0" fill="#60605F" transform="matrix(1.00, 0.00, -0.00, -1.00, 223.7, 330.8)">t</text><text xml:space="preserve" font-family="GillSans,Gill Sans" font-size="34.0" fill="#60605F" transform="matrix(1.00, 0.00, -0.00, -1.00, 235.1, 330.8)">h</text><text xml:space="preserve" font-family="GillSans,Gill Sans" font-size="34.0" fill="#60605F" transform="matrix(1.00, 0.00, -0.00, -1.00, 252.1, 330.8)">e</text><text xml:space="preserve" font-family="GillSans,Gill Sans" font-size="34.0" fill="#60605F" transform="matrix(1.00, 0.00, -0.00, -1.00, 268.3, 330.8)"> </text><text xml:space="preserve" font-family="GillSans,Gill Sans" font-size="34.0" fill="#60605F" transform="matrix(1.00, 0.00, -0.00, -1.00, 277.8, 330.8)">a</text><text xml:space="preserve" font-family="GillSans,Gill Sans" font-size="34.0" fill="#60605F" transform="matrix(1.00, 0.00, -0.00, -1.00, 291.1, 330.8)">v</text><text xml:space="preserve" font-family="GillSans,Gill Sans" font-size="34.0" fill="#60605F" transform="matrix(1.00, 0.00, -0.00, -1.00, 305.3, 330.8)">e</text><text xml:space="preserve" font-family="GillSans,Gill Sans" font-size="34.0" fill="#60605F" transform="matrix(1.00, 0.00, -0.00, -1.00, 321.6, 330.8)">r</text><text xml:space="preserve" font-family="GillSans,Gill Sans" font-size="34.0" fill="#60605F" transform="matrix(1.00, 0.00, -0.00, -1.00, 335.1, 330.8)">a</text><text xml:space="preserve" font-family="GillSans,Gill Sans" font-size="34.0" fill="#60605F" transform="matrix(1.00, 0.00, -0.00, -1.00, 349.6, 330.8)">g</text><text xml:space="preserve" font-family="GillSans,Gill Sans" font-size="34.0" fill="#60605F" transform="matrix(1.00, 0.00, -0.00, -1.00, 364.1, 330.8)">e</text><text xml:space="preserve" font-family="GillSans,Gill Sans" font-size="34.0" fill="#60605F" transform="matrix(1.00, 0.00, -0.00, -1.00, 380.3, 330.8)"> </text><text xml:space="preserve" font-family="GillSans,Gill Sans" font-size="34.0" fill="#60605F" transform="matrix(1.00, 0.00, -0.00, -1.00, 389.8, 330.8)">w</text><text xml:space="preserve" font-family="GillSans,Gill Sans" font-size="34.0" fill="#60605F" transform="matrix(1.00, 0.00, -0.00, -1.00, 413.6, 330.8)">e</text><text xml:space="preserve" font-family="GillSans,Gill Sans" font-size="34.0" fill="#60605F" transform="matrix(1.00, 0.00, -0.00, -1.00, 429.8, 330.8)">a</text><text xml:space="preserve" font-family="GillSans,Gill Sans" font-size="34.0" fill="#60605F" transform="matrix(1.00, 0.00, -0.00, -1.00, 444.4, 330.8)">t</text><text xml:space="preserve" font-family="GillSans,Gill Sans" font-size="34.0" fill="#60605F" transform="matrix(1.00, 0.00, -0.00, -1.00, 455.7, 330.8)">h</text><text xml:space="preserve" font-family="GillSans,Gill Sans" font-size="34.0" fill="#60605F" transform="matrix(1.00, 0.00, -0.00, -1.00, 472.7, 330.8)">e</text><text xml:space="preserve" font-family="GillSans,Gill Sans" font-size="34.0" fill="#60605F" transform="matrix(1.00, 0.00, -0.00, -1.00, 489.0, 330.8)">r</text><text xml:space="preserve" font-family="GillSans,Gill Sans" font-size="34.0" fill="#60605F" transform="matrix(1.00, 0.00, -0.00, -1.00, 502.4, 330.8)"> </text><text xml:space="preserve" font-family="GillSans,Gill Sans" font-size="34.0" fill="#60605F" transform="matrix(1.00, 0.00, -0.00, -1.00, 511.9, 330.8)">i</text><text xml:space="preserve" font-family="GillSans,Gill Sans" font-size="34.0" fill="#60605F" transform="matrix(1.00, 0.00, -0.00, -1.00, 519.3, 330.8)">n</text><text xml:space="preserve" font-family="GillSans,Gill Sans" font-size="34.0" fill="#60605F" transform="matrix(1.00, 0.00, -0.00, -1.00, 536.3, 330.8)"> </text><text xml:space="preserve" font-family="GillSans,Gill Sans" font-size="34.0" fill="#60605F" transform="matrix(1.00, 0.00, -0.00, -1.00, 545.8, 330.8)">a</text><text xml:space="preserve" font-family="GillSans,Gill Sans" font-size="34.0" fill="#60605F" transform="matrix(1.00, 0.00, -0.00, -1.00, 560.3, 330.8)"> </text><text xml:space="preserve" font-family="GillSans,Gill Sans" font-size="34.0" fill="#60605F" transform="matrix(1.00, 0.00, -0.00, -1.00, 569.7, 330.8)">p</text><text xml:space="preserve" font-family="GillSans,Gill Sans" font-size="34.0" fill="#60605F" transform="matrix(1.00, 0.00, -0.00, -1.00, 586.7, 330.8)">l</text><text xml:space="preserve" font-family="GillSans,Gill Sans" font-size="34.0" fill="#60605F" transform="matrix(1.00, 0.00, -0.00, -1.00, 594.2, 330.8)">a</text><text xml:space="preserve" font-family="GillSans,Gill Sans" font-size="34.0" fill="#60605F" transform="matrix(1.00, 0.00, -0.00, -1.00, 608.7, 330.8)">c</text><text xml:space="preserve" font-family="GillSans,Gill Sans" font-size="34.0" fill="#60605F" transform="matrix(1.00, 0.00, -0.00, -1.00, 623.6, 330.8)">e</text><text xml:space="preserve" font-family="GillSans,Gill Sans" font-size="34.0" fill="#60605F" transform="matrix(1.00, 0.00, -0.00, -1.00, 639.8, 330.8)"> </text><text xml:space="preserve" font-family="GillSans,Gill Sans" font-size="34.0" fill="#60605F" transform="matrix(1.00, 0.00, -0.00, -1.00, 649.3, 330.8)">o</text><text xml:space="preserve" font-family="GillSans,Gill Sans" font-size="34.0" fill="#60605F" transform="matrix(1.00, 0.00, -0.00, -1.00, 667.7, 330.8)">v</text><text xml:space="preserve" font-family="GillSans,Gill Sans" font-size="34.0" fill="#60605F" transform="matrix(1.00, 0.00, -0.00, -1.00, 681.9, 330.8)">e</text><text xml:space="preserve" font-family="GillSans,Gill Sans" font-size="34.0" fill="#60605F" transform="matrix(1.00, 0.00, -0.00, -1.00, 698.2, 330.8)">r</text><text xml:space="preserve" font-family="GillSans,Gill Sans" font-size="34.0" fill="#60605F" transform="matrix(1.00, 0.00, -0.00, -1.00, 711.7, 330.8)"> </text><text xml:space="preserve" font-family="GillSans,Gill Sans" font-size="34.0" fill="#60605F" transform="matrix(1.00, 0.00, -0.00, -1.00, 721.1, 330.8)">m</text><text xml:space="preserve" font-family="GillSans,Gill Sans" font-size="34.0" fill="#60605F" transform="matrix(1.00, 0.00, -0.00, -1.00, 747.3, 330.8)">a</text><text xml:space="preserve" font-family="GillSans,Gill Sans" font-size="34.0" fill="#60605F" transform="matrix(1.00, 0.00, -0.00, -1.00, 761.8, 330.8)">n</text><text xml:space="preserve" font-family="GillSans,Gill Sans" font-size="34.0" fill="#60605F" transform="matrix(1.00, 0.00, -0.00, -1.00, 778.1, 330.8)">y</text><text xml:space="preserve" font-family="GillSans,Gill Sans" font-size="34.0" fill="#60605F" transform="matrix(1.00, 0.00, -0.00, -1.00, 793.0, 330.8)"> </text><text xml:space="preserve" font-family="GillSans,Gill Sans" font-size="34.0" fill="#60605F" transform="matrix(1.00, 0.00, -0.00, -1.00, 802.5, 330.8)">y</text><text xml:space="preserve" font-family="GillSans,Gill Sans" font-size="34.0" fill="#60605F" transform="matrix(1.00, 0.00, -0.00, -1.00, 816.7, 330.8)">e</text><text xml:space="preserve" font-family="GillSans,Gill Sans" font-size="34.0" fill="#60605F" transform="matrix(1.00, 0.00, -0.00, -1.00, 833.0, 330.8)">a</text><text xml:space="preserve" font-family="GillSans,Gill Sans" font-size="34.0" fill="#60605F" transform="matrix(1.00, 0.00, -0.00, -1.00, 847.5, 330.8)">r</text><text xml:space="preserve" font-family="GillSans,Gill Sans" font-size="34.0" fill="#60605F" transform="matrix(1.00, 0.00, -0.00, -1.00, 860.9, 330.8)">s</text><text xml:space="preserve" font-family="GillSans,Gill Sans" font-size="34.0" fill="#60605F" transform="matrix(1.00, 0.00, -0.00, -1.00, 874.0, 330.8)">.</text><text xml:space="preserve" font-family="GillSans,Gill Sans" font-size="34.0" fill="#60605F" transform="matrix(1.00, 0.00, -0.00, -1.00, 878.1, 330.8)"> </text><text xml:space="preserve" font-family="GillSans,Gill Sans" font-size="34.0" fill="#60605F" transform="matrix(1.00, 0.00, -0.00, -1.00, 883.3, 330.8)">W</text><text xml:space="preserve" font-family="GillSans,Gill Sans" font-size="34.0" fill="#60605F" transform="matrix(1.00, 0.00, -0.00, -1.00, 918.7, 330.8)">h</text><text xml:space="preserve" font-family="GillSans,Gill Sans" font-size="34.0" fill="#60605F" transform="matrix(1.00, 0.00, -0.00, -1.00, 935.7, 330.8)">i</text><text xml:space="preserve" font-family="GillSans,Gill Sans" font-size="34.0" fill="#60605F" transform="matrix(1.00, 0.00, -0.00, -1.00, 943.2, 330.8)">l</text><text xml:space="preserve" font-family="GillSans,Gill Sans" font-size="34.0" fill="#60605F" transform="matrix(1.00, 0.00, -0.00, -1.00, 950.6, 330.8)">e</text><text xml:space="preserve" font-family="GillSans,Gill Sans" font-size="34.0" fill="#60605F" transform="matrix(1.00, 0.00, -0.00, -1.00, 966.9, 330.8)"> </text><text xml:space="preserve" font-family="GillSans,Gill Sans" font-size="34.0" fill="#60605F" transform="matrix(1.00, 0.00, -0.00, -1.00, 77.0, 291.8)">t</text><text xml:space="preserve" font-family="GillSans,Gill Sans" font-size="34.0" fill="#60605F" transform="matrix(1.00, 0.00, -0.00, -1.00, 88.3, 291.8)">h</text><text xml:space="preserve" font-family="GillSans,Gill Sans" font-size="34.0" fill="#60605F" transform="matrix(1.00, 0.00, -0.00, -1.00, 105.3, 291.8)">e</text><text xml:space="preserve" font-family="GillSans,Gill Sans" font-size="34.0" fill="#60605F" transform="matrix(1.00, 0.00, -0.00, -1.00, 121.6, 291.8)"> </text><text xml:space="preserve" font-family="GillSans,Gill Sans" font-size="34.0" fill="#60605F" transform="matrix(1.00, 0.00, -0.00, -1.00, 131.0, 291.8)">w</text><text xml:space="preserve" font-family="GillSans,Gill Sans" font-size="34.0" fill="#60605F" transform="matrix(1.00, 0.00, -0.00, -1.00, 154.8, 291.8)">e</text><text xml:space="preserve" font-family="GillSans,Gill Sans" font-size="34.0" fill="#60605F" transform="matrix(1.00, 0.00, -0.00, -1.00, 171.1, 291.8)">a</text><text xml:space="preserve" font-family="GillSans,Gill Sans" font-size="34.0" fill="#60605F" transform="matrix(1.00, 0.00, -0.00, -1.00, 185.6, 291.8)">t</text><text xml:space="preserve" font-family="GillSans,Gill Sans" font-size="34.0" fill="#60605F" transform="matrix(1.00, 0.00, -0.00, -1.00, 196.9, 291.8)">h</text><text xml:space="preserve" font-family="GillSans,Gill Sans" font-size="34.0" fill="#60605F" transform="matrix(1.00, 0.00, -0.00, -1.00, 213.9, 291.8)">e</text><text xml:space="preserve" font-family="GillSans,Gill Sans" font-size="34.0" fill="#60605F" transform="matrix(1.00, 0.00, -0.00, -1.00, 230.2, 291.8)">r</text><text xml:space="preserve" font-family="GillSans,Gill Sans" font-size="34.0" fill="#60605F" transform="matrix(1.00, 0.00, -0.00, -1.00, 243.7, 291.8)"> </text><text xml:space="preserve" font-family="GillSans,Gill Sans" font-size="34.0" fill="#60605F" transform="matrix(1.00, 0.00, -0.00, -1.00, 253.1, 291.8)">c</text><text xml:space="preserve" font-family="GillSans,Gill Sans" font-size="34.0" fill="#60605F" transform="matrix(1.00, 0.00, -0.00, -1.00, 268.0, 291.8)">a</text><text xml:space="preserve" font-family="GillSans,Gill Sans" font-size="34.0" fill="#60605F" transform="matrix(1.00, 0.00, -0.00, -1.00, 282.5, 291.8)">n</text><text xml:space="preserve" font-family="GillSans,Gill Sans" font-size="34.0" fill="#60605F" transform="matrix(1.00, 0.00, -0.00, -1.00, 299.5, 291.8)"> </text><text xml:space="preserve" font-family="GillSans,Gill Sans" font-size="34.0" fill="#60605F" transform="matrix(1.00, 0.00, -0.00, -1.00, 309.0, 291.8)">c</text><text xml:space="preserve" font-family="GillSans,Gill Sans" font-size="34.0" fill="#60605F" transform="matrix(1.00, 0.00, -0.00, -1.00, 323.9, 291.8)">h</text><text xml:space="preserve" font-family="GillSans,Gill Sans" font-size="34.0" fill="#60605F" transform="matrix(1.00, 0.00, -0.00, -1.00, 340.9, 291.8)">a</text><text xml:space="preserve" font-family="GillSans,Gill Sans" font-size="34.0" fill="#60605F" transform="matrix(1.00, 0.00, -0.00, -1.00, 355.4, 291.8)">n</text><text xml:space="preserve" font-family="GillSans,Gill Sans" font-size="34.0" fill="#60605F" transform="matrix(1.00, 0.00, -0.00, -1.00, 372.4, 291.8)">g</text><text xml:space="preserve" font-family="GillSans,Gill Sans" font-size="34.0" fill="#60605F" transform="matrix(1.00, 0.00, -0.00, -1.00, 386.9, 291.8)">e</text><text xml:space="preserve" font-family="GillSans,Gill Sans" font-size="34.0" fill="#60605F" transform="matrix(1.00, 0.00, -0.00, -1.00, 403.1, 291.8)"> </text><text xml:space="preserve" font-family="GillSans,Gill Sans" font-size="34.0" fill="#60605F" transform="matrix(1.00, 0.00, -0.00, -1.00, 412.6, 291.8)">i</text><text xml:space="preserve" font-family="GillSans,Gill Sans" font-size="34.0" fill="#60605F" transform="matrix(1.00, 0.00, -0.00, -1.00, 420.0, 291.8)">n</text><text xml:space="preserve" font-family="GillSans,Gill Sans" font-size="34.0" fill="#60605F" transform="matrix(1.00, 0.00, -0.00, -1.00, 437.0, 291.8)"> </text><text xml:space="preserve" font-family="GillSans,Gill Sans" font-size="34.0" fill="#60605F" transform="matrix(1.00, 0.00, -0.00, -1.00, 446.5, 291.8)">j</text><text xml:space="preserve" font-family="GillSans,Gill Sans" font-size="34.0" fill="#60605F" transform="matrix(1.00, 0.00, -0.00, -1.00, 453.9, 291.8)">u</text><text xml:space="preserve" font-family="GillSans,Gill Sans" font-size="34.0" fill="#60605F" transform="matrix(1.00, 0.00, -0.00, -1.00, 470.9, 291.8)">s</text><text xml:space="preserve" font-family="GillSans,Gill Sans" font-size="34.0" fill="#60605F" transform="matrix(1.00, 0.00, -0.00, -1.00, 484.0, 291.8)">t</text><text xml:space="preserve" font-family="GillSans,Gill Sans" font-size="34.0" fill="#60605F" transform="matrix(1.00, 0.00, -0.00, -1.00, 495.3, 291.8)"> </text><text xml:space="preserve" font-family="GillSans,Gill Sans" font-size="34.0" fill="#60605F" transform="matrix(1.00, 0.00, -0.00, -1.00, 504.8, 291.8)">a</text><text xml:space="preserve" font-family="GillSans,Gill Sans" font-size="34.0" fill="#60605F" transform="matrix(1.00, 0.00, -0.00, -1.00, 519.3, 291.8)"> </text><text xml:space="preserve" font-family="GillSans,Gill Sans" font-size="34.0" fill="#60605F" transform="matrix(1.00, 0.00, -0.00, -1.00, 528.7, 291.8)">f</text><text xml:space="preserve" font-family="GillSans,Gill Sans" font-size="34.0" fill="#60605F" transform="matrix(1.00, 0.00, -0.00, -1.00, 536.9, 291.8)">e</text><text xml:space="preserve" font-family="GillSans,Gill Sans" font-size="34.0" fill="#60605F" transform="matrix(1.00, 0.00, -0.00, -1.00, 552.7, 291.8)">w</text><text xml:space="preserve" font-family="GillSans,Gill Sans" font-size="34.0" fill="#60605F" transform="matrix(1.00, 0.00, -0.00, -1.00, 577.1, 291.8)"> </text><text xml:space="preserve" font-family="GillSans,Gill Sans" font-size="34.0" fill="#60605F" transform="matrix(1.00, 0.00, -0.00, -1.00, 586.6, 291.8)">h</text><text xml:space="preserve" font-family="GillSans,Gill Sans" font-size="34.0" fill="#60605F" transform="matrix(1.00, 0.00, -0.00, -1.00, 603.6, 291.8)">o</text><text xml:space="preserve" font-family="GillSans,Gill Sans" font-size="34.0" fill="#60605F" transform="matrix(1.00, 0.00, -0.00, -1.00, 622.3, 291.8)">u</text><text xml:space="preserve" font-family="GillSans,Gill Sans" font-size="34.0" fill="#60605F" transform="matrix(1.00, 0.00, -0.00, -1.00, 639.3, 291.8)">r</text><text xml:space="preserve" font-family="GillSans,Gill Sans" font-size="34.0" fill="#60605F" transform="matrix(1.00, 0.00, -0.00, -1.00, 652.8, 291.8)">s</text><text xml:space="preserve" font-family="GillSans,Gill Sans" font-size="34.0" fill="#60605F" transform="matrix(1.00, 0.00, -0.00, -1.00, 665.9, 291.8)">,</text><text xml:space="preserve" font-family="GillSans,Gill Sans" font-size="34.0" fill="#60605F" transform="matrix(1.00, 0.00, -0.00, -1.00, 669.9, 291.8)"> </text><text xml:space="preserve" font-family="GillSans,Gill Sans" font-size="34.0" fill="#60605F" transform="matrix(1.00, 0.00, -0.00, -1.00, 679.4, 291.8)">c</text><text xml:space="preserve" font-family="GillSans,Gill Sans" font-size="34.0" fill="#60605F" transform="matrix(1.00, 0.00, -0.00, -1.00, 694.2, 291.8)">l</text><text xml:space="preserve" font-family="GillSans,Gill Sans" font-size="34.0" fill="#60605F" transform="matrix(1.00, 0.00, -0.00, -1.00, 701.7, 291.8)">i</text><text xml:space="preserve" font-family="GillSans,Gill Sans" font-size="34.0" fill="#60605F" transform="matrix(1.00, 0.00, -0.00, -1.00, 709.2, 291.8)">m</text><text xml:space="preserve" font-family="GillSans,Gill Sans" font-size="34.0" fill="#60605F" transform="matrix(1.00, 0.00, -0.00, -1.00, 735.4, 291.8)">a</text><text xml:space="preserve" font-family="GillSans,Gill Sans" font-size="34.0" fill="#60605F" transform="matrix(1.00, 0.00, -0.00, -1.00, 749.9, 291.8)">t</text><text xml:space="preserve" font-family="GillSans,Gill Sans" font-size="34.0" fill="#60605F" transform="matrix(1.00, 0.00, -0.00, -1.00, 761.2, 291.8)">e</text><text xml:space="preserve" font-family="GillSans,Gill Sans" font-size="34.0" fill="#60605F" transform="matrix(1.00, 0.00, -0.00, -1.00, 777.5, 291.8)"> </text><text xml:space="preserve" font-family="GillSans,Gill Sans" font-size="34.0" fill="#60605F" transform="matrix(1.00, 0.00, -0.00, -1.00, 786.9, 291.8)">t</text><text xml:space="preserve" font-family="GillSans,Gill Sans" font-size="34.0" fill="#60605F" transform="matrix(1.00, 0.00, -0.00, -1.00, 798.3, 291.8)">a</text><text xml:space="preserve" font-family="GillSans,Gill Sans" font-size="34.0" fill="#60605F" transform="matrix(1.00, 0.00, -0.00, -1.00, 812.8, 291.8)">k</text><text xml:space="preserve" font-family="GillSans,Gill Sans" font-size="34.0" fill="#60605F" transform="matrix(1.00, 0.00, -0.00, -1.00, 828.0, 291.8)">e</text><text xml:space="preserve" font-family="GillSans,Gill Sans" font-size="34.0" fill="#60605F" transform="matrix(1.00, 0.00, -0.00, -1.00, 844.3, 291.8)">s</text><text xml:space="preserve" font-family="GillSans,Gill Sans" font-size="34.0" fill="#60605F" transform="matrix(1.00, 0.00, -0.00, -1.00, 857.4, 291.8)"> </text><text xml:space="preserve" font-family="GillSans,Gill Sans" font-size="34.0" fill="#60605F" transform="matrix(1.00, 0.00, -0.00, -1.00, 77.0, 252.8)">h</text><text xml:space="preserve" font-family="GillSans,Gill Sans" font-size="34.0" fill="#60605F" transform="matrix(1.00, 0.00, -0.00, -1.00, 94.0, 252.8)">u</text><text xml:space="preserve" font-family="GillSans,Gill Sans" font-size="34.0" fill="#60605F" transform="matrix(1.00, 0.00, -0.00, -1.00, 111.0, 252.8)">n</text><text xml:space="preserve" font-family="GillSans,Gill Sans" font-size="34.0" fill="#60605F" transform="matrix(1.00, 0.00, -0.00, -1.00, 128.0, 252.8)">d</text><text xml:space="preserve" font-family="GillSans,Gill Sans" font-size="34.0" fill="#60605F" transform="matrix(1.00, 0.00, -0.00, -1.00, 145.3, 252.8)">r</text><text xml:space="preserve" font-family="GillSans,Gill Sans" font-size="34.0" fill="#60605F" transform="matrix(1.00, 0.00, -0.00, -1.00, 158.1, 252.8)">e</text><text xml:space="preserve" font-family="GillSans,Gill Sans" font-size="34.0" fill="#60605F" transform="matrix(1.00, 0.00, -0.00, -1.00, 174.4, 252.8)">d</text><text xml:space="preserve" font-family="GillSans,Gill Sans" font-size="34.0" fill="#60605F" transform="matrix(1.00, 0.00, -0.00, -1.00, 191.7, 252.8)">s</text><text xml:space="preserve" font-family="GillSans,Gill Sans" font-size="34.0" fill="#60605F" transform="matrix(1.00, 0.00, -0.00, -1.00, 204.8, 252.8)">,</text><text xml:space="preserve" font-family="GillSans,Gill Sans" font-size="34.0" fill="#60605F" transform="matrix(1.00, 0.00, -0.00, -1.00, 208.9, 252.8)"> </text><text xml:space="preserve" font-family="GillSans,Gill Sans" font-size="34.0" fill="#60605F" transform="matrix(1.00, 0.00, -0.00, -1.00, 218.3, 252.8)">t</text><text xml:space="preserve" font-family="GillSans,Gill Sans" font-size="34.0" fill="#60605F" transform="matrix(1.00, 0.00, -0.00, -1.00, 229.6, 252.8)">h</text><text xml:space="preserve" font-family="GillSans,Gill Sans" font-size="34.0" fill="#60605F" transform="matrix(1.00, 0.00, -0.00, -1.00, 246.6, 252.8)">o</text><text xml:space="preserve" font-family="GillSans,Gill Sans" font-size="34.0" fill="#60605F" transform="matrix(1.00, 0.00, -0.00, -1.00, 265.4, 252.8)">u</text><text xml:space="preserve" font-family="GillSans,Gill Sans" font-size="34.0" fill="#60605F" transform="matrix(1.00, 0.00, -0.00, -1.00, 282.4, 252.8)">s</text><text xml:space="preserve" font-family="GillSans,Gill Sans" font-size="34.0" fill="#60605F" transform="matrix(1.00, 0.00, -0.00, -1.00, 295.4, 252.8)">a</text><text xml:space="preserve" font-family="GillSans,Gill Sans" font-size="34.0" fill="#60605F" transform="matrix(1.00, 0.00, -0.00, -1.00, 309.9, 252.8)">n</text><text xml:space="preserve" font-family="GillSans,Gill Sans" font-size="34.0" fill="#60605F" transform="matrix(1.00, 0.00, -0.00, -1.00, 326.9, 252.8)">d</text><text xml:space="preserve" font-family="GillSans,Gill Sans" font-size="34.0" fill="#60605F" transform="matrix(1.00, 0.00, -0.00, -1.00, 344.3, 252.8)">s</text><text xml:space="preserve" font-family="GillSans,Gill Sans" font-size="34.0" fill="#60605F" transform="matrix(1.00, 0.00, -0.00, -1.00, 357.3, 252.8)">,</text><text xml:space="preserve" font-family="GillSans,Gill Sans" font-size="34.0" fill="#60605F" transform="matrix(1.00, 0.00, -0.00, -1.00, 361.4, 252.8)"> </text><text xml:space="preserve" font-family="GillSans,Gill Sans" font-size="34.0" fill="#60605F" transform="matrix(1.00, 0.00, -0.00, -1.00, 370.8, 252.8)">e</text><text xml:space="preserve" font-family="GillSans,Gill Sans" font-size="34.0" fill="#60605F" transform="matrix(1.00, 0.00, -0.00, -1.00, 386.6, 252.8)">v</text><text xml:space="preserve" font-family="GillSans,Gill Sans" font-size="34.0" fill="#60605F" transform="matrix(1.00, 0.00, -0.00, -1.00, 400.8, 252.8)">e</text><text xml:space="preserve" font-family="GillSans,Gill Sans" font-size="34.0" fill="#60605F" transform="matrix(1.00, 0.00, -0.00, -1.00, 417.1, 252.8)">n</text><text xml:space="preserve" font-family="GillSans,Gill Sans" font-size="34.0" fill="#60605F" transform="matrix(1.00, 0.00, -0.00, -1.00, 434.1, 252.8)"> </text><text xml:space="preserve" font-family="GillSans,Gill Sans" font-size="34.0" fill="#60605F" transform="matrix(1.00, 0.00, -0.00, -1.00, 443.6, 252.8)">m</text><text xml:space="preserve" font-family="GillSans,Gill Sans" font-size="34.0" fill="#60605F" transform="matrix(1.00, 0.00, -0.00, -1.00, 469.8, 252.8)">i</text><text xml:space="preserve" font-family="GillSans,Gill Sans" font-size="34.0" fill="#60605F" transform="matrix(1.00, 0.00, -0.00, -1.00, 477.2, 252.8)">l</text><text xml:space="preserve" font-family="GillSans,Gill Sans" font-size="34.0" fill="#60605F" transform="matrix(1.00, 0.00, -0.00, -1.00, 484.7, 252.8)">l</text><text xml:space="preserve" font-family="GillSans,Gill Sans" font-size="34.0" fill="#60605F" transform="matrix(1.00, 0.00, -0.00, -1.00, 492.2, 252.8)">i</text><text xml:space="preserve" font-family="GillSans,Gill Sans" font-size="34.0" fill="#60605F" transform="matrix(1.00, 0.00, -0.00, -1.00, 499.6, 252.8)">o</text><text xml:space="preserve" font-family="GillSans,Gill Sans" font-size="34.0" fill="#60605F" transform="matrix(1.00, 0.00, -0.00, -1.00, 518.4, 252.8)">n</text><text xml:space="preserve" font-family="GillSans,Gill Sans" font-size="34.0" fill="#60605F" transform="matrix(1.00, 0.00, -0.00, -1.00, 535.4, 252.8)">s</text><text xml:space="preserve" font-family="GillSans,Gill Sans" font-size="34.0" fill="#60605F" transform="matrix(1.00, 0.00, -0.00, -1.00, 548.4, 252.8)"> </text><text xml:space="preserve" font-family="GillSans,Gill Sans" font-size="34.0" fill="#60605F" transform="matrix(1.00, 0.00, -0.00, -1.00, 557.9, 252.8)">o</text><text xml:space="preserve" font-family="GillSans,Gill Sans" font-size="34.0" fill="#60605F" transform="matrix(1.00, 0.00, -0.00, -1.00, 576.6, 252.8)">f</text><text xml:space="preserve" font-family="GillSans,Gill Sans" font-size="34.0" fill="#60605F" transform="matrix(1.00, 0.00, -0.00, -1.00, 585.1, 252.8)"> </text><text xml:space="preserve" font-family="GillSans,Gill Sans" font-size="34.0" fill="#60605F" transform="matrix(1.00, 0.00, -0.00, -1.00, 594.6, 252.8)">y</text><text xml:space="preserve" font-family="GillSans,Gill Sans" font-size="34.0" fill="#60605F" transform="matrix(1.00, 0.00, -0.00, -1.00, 608.8, 252.8)">e</text><text xml:space="preserve" font-family="GillSans,Gill Sans" font-size="34.0" fill="#60605F" transform="matrix(1.00, 0.00, -0.00, -1.00, 625.1, 252.8)">a</text><text xml:space="preserve" font-family="GillSans,Gill Sans" font-size="34.0" fill="#60605F" transform="matrix(1.00, 0.00, -0.00, -1.00, 639.6, 252.8)">r</text><text xml:space="preserve" font-family="GillSans,Gill Sans" font-size="34.0" fill="#60605F" transform="matrix(1.00, 0.00, -0.00, -1.00, 653.0, 252.8)">s</text><text xml:space="preserve" font-family="GillSans,Gill Sans" font-size="34.0" fill="#60605F" transform="matrix(1.00, 0.00, -0.00, -1.00, 666.1, 252.8)"> </text><text xml:space="preserve" font-family="GillSans,Gill Sans" font-size="34.0" fill="#60605F" transform="matrix(1.00, 0.00, -0.00, -1.00, 675.6, 252.8)">t</text><text xml:space="preserve" font-family="GillSans,Gill Sans" font-size="34.0" fill="#60605F" transform="matrix(1.00, 0.00, -0.00, -1.00, 686.9, 252.8)">o</text><text xml:space="preserve" font-family="GillSans,Gill Sans" font-size="34.0" fill="#60605F" transform="matrix(1.00, 0.00, -0.00, -1.00, 705.6, 252.8)"> </text><text xml:space="preserve" font-family="GillSans,Gill Sans" font-size="34.0" fill="#60605F" transform="matrix(1.00, 0.00, -0.00, -1.00, 715.1, 252.8)">c</text><text xml:space="preserve" font-family="GillSans,Gill Sans" font-size="34.0" fill="#60605F" transform="matrix(1.00, 0.00, -0.00, -1.00, 730.0, 252.8)">h</text><text xml:space="preserve" font-family="GillSans,Gill Sans" font-size="34.0" fill="#60605F" transform="matrix(1.00, 0.00, -0.00, -1.00, 747.0, 252.8)">a</text><text xml:space="preserve" font-family="GillSans,Gill Sans" font-size="34.0" fill="#60605F" transform="matrix(1.00, 0.00, -0.00, -1.00, 761.5, 252.8)">n</text><text xml:space="preserve" font-family="GillSans,Gill Sans" font-size="34.0" fill="#60605F" transform="matrix(1.00, 0.00, -0.00, -1.00, 778.5, 252.8)">g</text><text xml:space="preserve" font-family="GillSans,Gill Sans" font-size="34.0" fill="#60605F" transform="matrix(1.00, 0.00, -0.00, -1.00, 793.0, 252.8)">e</text><text xml:space="preserve" font-family="GillSans,Gill Sans" font-size="34.0" fill="#60605F" transform="matrix(1.00, 0.00, -0.00, -1.00, 809.9, 252.8)">.</text></g></svg>