<?xml version="1.0" encoding="UTF-8" standalone="no"?><svg xmlns="http://www.w3.org/2000/svg" xmlns:xlink="http://www.w3.org/1999/xlink" clip-rule="evenodd" stroke-miterlimit="10" viewBox="0 0 1024 768"><desc>SVG generated by Keynote</desc><defs><pattern id="patternP1" patternUnits="userSpaceOnUse" width="512" height="512" viewBox="0 0 512 512"><image xlink:href="FA2E073AFADFA45400BFBD57DF489572.jpeg" width="512.00" height="512.00"></image></pattern></defs><g transform="matrix(1.00, 0.00, -0.00, -1.00, 0.0, 768.0)"><g><clipPath id="clip0x600000abac40"><path d="M 0.0 768.0 L 1024.0 768.0 L 1024.0 0.0 L 0.0 0.0 Z M 0.0 768.0 "></path></clipPath><g clip-path="url(#clip0x600000abac40)"><path d="M 0.0 0.0 L 1024.0 0.0 L 1024.0 768.0 L 0.0 768.0 Z M 0.0 0.0 " fill="url(#patternP1)"></path></g></g><g opacity="0.30"><g><clipPath id="clip0x600000caf420"><path d="M 39.0 36.0 L 985.0 36.0 L 985.0 45.0 L 39.0 45.0 Z M 39.0 36.0 "></path></clipPath><g clip-path="url(#clip0x600000caf420)"><path d="M 0.0 0.0 L 944.0 0.0 L 944.0 0.0 L 0.0 0.0 Z M 0.0 0.0 " fill="none" stroke="#434343" stroke-width="6.00" transform="matrix(1.00, 0.00, 0.00, -1.00, 40.0, 40.0)"></path></g></g></g><g opacity="0.30"><g><clipPath id="clip0x600000ea6600"><path d="M 39.0 726.0 L 985.0 726.0 L 985.0 730.0 L 39.0 730.0 Z M 39.0 726.0 "></path></clipPath><g clip-path="url(#clip0x600000ea6600)"><path d="M 0.0 0.5 L 944.0 0.5 L 944.0 0.5 L 0.0 0.5 Z M 0.0 0.0 " fill="none" stroke="#434343" stroke-width="1.00" transform="matrix(1.00, 0.00, 0.00, -1.00, 40.0, 728.0)"></path></g></g></g><g opacity="0.30"><g><clipPath id="clip0x600000cb4940"><path d="M 39.0 358.0 L 985.0 358.0 L 985.0 362.0 L 39.0 362.0 Z M 39.0 358.0 "></path></clipPath><g clip-path="url(#clip0x600000cb4940)"><path d="M 0.0 0.5 L 944.0 0.5 L 944.0 0.5 L 0.0 0.5 Z M 0.0 0.0 " fill="none" stroke="#434343" stroke-width="1.00" transform="matrix(1.00, 0.00, 0.00, -1.00, 40.0, 360.0)"></path></g></g></g><text xml:space="preserve" font-family="GillSans-Light,Gill Sans" font-size="64.0" fill="#60605F" transform="matrix(1.00, 0.00, -0.00, -1.00, 44.0, 390.2)">C</text><text xml:space="preserve" font-family="GillSans-Light,Gill Sans" font-size="64.0" fill="#60605F" transform="matrix(1.00, 0.00, -0.00, -1.00, 87.3, 390.2)">L</text><text xml:space="preserve" font-family="GillSans-Light,Gill Sans" font-size="64.0" fill="#60605F" transform="matrix(1.00, 0.00, -0.00, -1.00, 117.3, 390.2)">I</text><text xml:space="preserve" font-family="GillSans-Light,Gill Sans" font-size="64.0" fill="#60605F" transform="matrix(1.00, 0.00, -0.00, -1.00, 130.7, 390.2)">M</text><text xml:space="preserve" font-family="GillSans-Light,Gill Sans" font-size="64.0" fill="#60605F" transform="matrix(1.00, 0.00, -0.00, -1.00, 180.6, 390.2)">A</text><text xml:space="preserve" font-family="GillSans-Light,Gill Sans" font-size="64.0" fill="#60605F" transform="matrix(1.00, 0.00, -0.00, -1.00, 216.9, 390.2)">T</text><text xml:space="preserve" font-family="GillSans-Light,Gill Sans" font-size="64.0" fill="#60605F" transform="matrix(1.00, 0.00, -0.00, -1.00, 253.6, 390.2)">E</text><text xml:space="preserve" font-family="GillSans-Light,Gill Sans" font-size="64.0" fill="#60605F" transform="matrix(1.00, 0.00, -0.00, -1.00, 285.0, 390.2)"> </text><text xml:space="preserve" font-family="GillSans-Light,Gill Sans" font-size="64.0" fill="#60605F" transform="matrix(1.00, 0.00, -0.00, -1.00, 302.7, 390.2)">C</text><text xml:space="preserve" font-family="GillSans-Light,Gill Sans" font-size="64.0" fill="#60605F" transform="matrix(1.00, 0.00, -0.00, -1.00, 346.0, 390.2)">H</text><text xml:space="preserve" font-family="GillSans-Light,Gill Sans" font-size="64.0" fill="#60605F" transform="matrix(1.00, 0.00, -0.00, -1.00, 392.1, 390.2)">A</text><text xml:space="preserve" font-family="GillSans-Light,Gill Sans" font-size="64.0" fill="#60605F" transform="matrix(1.00, 0.00, -0.00, -1.00, 434.8, 390.2)">N</text><text xml:space="preserve" font-family="GillSans-Light,Gill Sans" font-size="64.0" fill="#60605F" transform="matrix(1.00, 0.00, -0.00, -1.00, 484.1, 390.2)">G</text><text xml:space="preserve" font-family="GillSans-Light,Gill Sans" font-size="64.0" fill="#60605F" transform="matrix(1.00, 0.00, -0.00, -1.00, 530.2, 390.2)">E</text><text xml:space="preserve" font-family="GillSans-Light,Gill Sans" font-size="64.0" fill="#60605F" transform="matrix(1.00, 0.00, -0.00, -1.00, 561.6, 390.2)"> </text><text xml:space="preserve" font-family="GillSans-Light,Gill Sans" font-size="64.0" fill="#60605F" transform="matrix(1.00, 0.00, -0.00, -1.00, 579.3, 390.2)">D</text><text xml:space="preserve" font-family="GillSans-Light,Gill Sans" font-size="64.0" fill="#60605F" transform="matrix(1.00, 0.00, -0.00, -1.00, 626.7, 390.2)">E</text><text xml:space="preserve" font-family="GillSans-Light,Gill Sans" font-size="64.0" fill="#60605F" transform="matrix(1.00, 0.00, -0.00, -1.00, 658.1, 390.2)">T</text><text xml:space="preserve" font-family="GillSans-Light,Gill Sans" font-size="64.0" fill="#60605F" transform="matrix(1.00, 0.00, -0.00, -1.00, 694.8, 390.2)">E</text><text xml:space="preserve" font-family="GillSans-Light,Gill Sans" font-size="64.0" fill="#60605F" transform="matrix(1.00, 0.00, -0.00, -1.00, 726.2, 390.2)">C</text><text xml:space="preserve" font-family="GillSans-Light,Gill Sans" font-size="64.0" fill="#60605F" transform="matrix(1.00, 0.00, -0.00, -1.00, 769.5, 390.2)">T</text><text xml:space="preserve" font-family="GillSans-Light,Gill Sans" font-size="64.0" fill="#60605F" transform="matrix(1.00, 0.00, -0.00, -1.00, 801.4, 390.2)">O</text><text xml:space="preserve" font-family="GillSans-Light,Gill Sans" font-size="64.0" fill="#60605F" transform="matrix(1.00, 0.00, -0.00, -1.00, 854.1, 390.2)">R</text><text xml:space="preserve" font-family="GillSans,Gill Sans" font-size="24.0" fill="#60605F" transform="matrix(1.00, 0.00, -0.00, -1.00, 44.0, 303.5)">E</text><text xml:space="preserve" font-family="GillSans,Gill Sans" font-size="24.0" fill="#60605F" transform="matrix(1.00, 0.00, -0.00, -1.00, 56.0, 303.5)">c</text><text xml:space="preserve" font-family="GillSans,Gill Sans" font-size="24.0" fill="#60605F" transform="matrix(1.00, 0.00, -0.00, -1.00, 66.5, 303.5)">o</text><text xml:space="preserve" font-family="GillSans,Gill Sans" font-size="24.0" fill="#60605F" transform="matrix(1.00, 0.00, -0.00, -1.00, 79.7, 303.5)">l</text><text xml:space="preserve" font-family="GillSans,Gill Sans" font-size="24.0" fill="#60605F" transform="matrix(1.00, 0.00, -0.00, -1.00, 85.0, 303.5)">o</text><text xml:space="preserve" font-family="GillSans,Gill Sans" font-size="24.0" fill="#60605F" transform="matrix(1.00, 0.00, -0.00, -1.00, 98.3, 303.5)">g</text><text xml:space="preserve" font-family="GillSans,Gill Sans" font-size="24.0" fill="#60605F" transform="matrix(1.00, 0.00, -0.00, -1.00, 109.0, 303.5)">y</text><text xml:space="preserve" font-family="GillSans,Gill Sans" font-size="24.0" fill="#60605F" transform="matrix(1.00, 0.00, -0.00, -1.00, 119.5, 303.5)"> </text><text xml:space="preserve" font-family="GillSans,Gill Sans" font-size="24.0" fill="#60605F" transform="matrix(1.00, 0.00, -0.00, -1.00, 126.1, 303.5)">-</text><text xml:space="preserve" font-family="GillSans,Gill Sans" font-size="24.0" fill="#60605F" transform="matrix(1.00, 0.00, -0.00, -1.00, 133.9, 303.5)"> </text><text xml:space="preserve" font-family="GillSans,Gill Sans" font-size="24.0" fill="#60605F" transform="matrix(1.00, 0.00, -0.00, -1.00, 140.6, 303.5)">F</text><text xml:space="preserve" font-family="GillSans,Gill Sans" font-size="24.0" fill="#60605F" transform="matrix(1.00, 0.00, -0.00, -1.00, 151.8, 303.5)">i</text><text xml:space="preserve" font-family="GillSans,Gill Sans" font-size="24.0" fill="#60605F" transform="matrix(1.00, 0.00, -0.00, -1.00, 157.1, 303.5)">n</text><text xml:space="preserve" font-family="GillSans,Gill Sans" font-size="24.0" fill="#60605F" transform="matrix(1.00, 0.00, -0.00, -1.00, 169.1, 303.5)">a</text><text xml:space="preserve" font-family="GillSans,Gill Sans" font-size="24.0" fill="#60605F" transform="matrix(1.00, 0.00, -0.00, -1.00, 179.3, 303.5)">l</text><text xml:space="preserve" font-family="GillSans,Gill Sans" font-size="24.0" fill="#60605F" transform="matrix(1.00, 0.00, -0.00, -1.00, 184.6, 303.5)"> </text><text xml:space="preserve" font-family="GillSans,Gill Sans" font-size="24.0" fill="#60605F" transform="matrix(1.00, 0.00, -0.00, -1.00, 191.3, 303.5)">P</text><text xml:space="preserve" font-family="GillSans,Gill Sans" font-size="24.0" fill="#60605F" transform="matrix(1.00, 0.00, -0.00, -1.00, 203.5, 303.5)">r</text><text xml:space="preserve" font-family="GillSans,Gill Sans" font-size="24.0" fill="#60605F" transform="matrix(1.00, 0.00, -0.00, -1.00, 212.4, 303.5)">o</text><text xml:space="preserve" font-family="GillSans,Gill Sans" font-size="24.0" fill="#60605F" transform="matrix(1.00, 0.00, -0.00, -1.00, 225.6, 303.5)">j</text><text xml:space="preserve" font-family="GillSans,Gill Sans" font-size="24.0" fill="#60605F" transform="matrix(1.00, 0.00, -0.00, -1.00, 230.9, 303.5)">e</text><text xml:space="preserve" font-family="GillSans,Gill Sans" font-size="24.0" fill="#60605F" transform="matrix(1.00, 0.00, -0.00, -1.00, 242.4, 303.5)">c</text><text xml:space="preserve" font-family="GillSans,Gill Sans" font-size="24.0" fill="#60605F" transform="matrix(1.00, 0.00, -0.00, -1.00, 252.9, 303.5)">t</text><text xml:space="preserve" font-family="GillSans,Gill Sans" font-size="24.0" fill="#60605F" transform="matrix(1.00, 0.00, -0.00, -1.00, 260.9, 303.5)"> </text><text xml:space="preserve" font-family="GillSans,Gill Sans" font-size="24.0" fill="#60605F" transform="matrix(1.00, 0.00, -0.00, -1.00, 267.6, 303.5)">-</text><text xml:space="preserve" font-family="GillSans,Gill Sans" font-size="24.0" fill="#60605F" transform="matrix(1.00, 0.00, -0.00, -1.00, 275.3, 303.5)"> </text><text xml:space="preserve" font-family="GillSans,Gill Sans" font-size="24.0" fill="#60605F" transform="matrix(1.00, 0.00, -0.00, -1.00, 279.6, 303.5)">A</text><text xml:space="preserve" font-family="GillSans,Gill Sans" font-size="24.0" fill="#60605F" transform="matrix(1.00, 0.00, -0.00, -1.00, 295.6, 303.5)">p</text><text xml:space="preserve" font-family="GillSans,Gill Sans" font-size="24.0" fill="#60605F" transform="matrix(1.00, 0.00, -0.00, -1.00, 307.6, 303.5)">o</text><text xml:space="preserve" font-family="GillSans,Gill Sans" font-size="24.0" fill="#60605F" transform="matrix(1.00, 0.00, -0.00, -1.00, 320.8, 303.5)">s</text><text xml:space="preserve" font-family="GillSans,Gill Sans" font-size="24.0" fill="#60605F" transform="matrix(1.00, 0.00, -0.00, -1.00, 330.1, 303.5)">t</text><text xml:space="preserve" font-family="GillSans,Gill Sans" font-size="24.0" fill="#60605F" transform="matrix(1.00, 0.00, -0.00, -1.00, 338.1, 303.5)">o</text><text xml:space="preserve" font-family="GillSans,Gill Sans" font-size="24.0" fill="#60605F" transform="matrix(1.00, 0.00, -0.00, -1.00, 351.3, 303.5)">l</text><text xml:space="preserve" font-family="GillSans,Gill Sans" font-size="24.0" fill="#60605F" transform="matrix(1.00, 0.00, -0.00, -1.00, 356.6, 303.5)">o</text><text xml:space="preserve" font-family="GillSans,Gill Sans" font-size="24.0" fill="#60605F" transform="matrix(1.00, 0.00, -0.00, -1.00, 369.8, 303.5)">s</text><text xml:space="preserve" font-family="GillSans,Gill Sans" font-size="24.0" fill="#60605F" transform="matrix(1.00, 0.00, -0.00, -1.00, 379.0, 303.5)"> </text><text xml:space="preserve" font-family="GillSans,Gill Sans" font-size="24.0" fill="#60605F" transform="matrix(1.00, 0.00, -0.00, -1.00, 385.7, 303.5)">S</text><text xml:space="preserve" font-family="GillSans,Gill Sans" font-size="24.0" fill="#60605F" transform="matrix(1.00, 0.00, -0.00, -1.00, 396.7, 303.5)">i</text><text xml:space="preserve" font-family="GillSans,Gill Sans" font-size="24.0" fill="#60605F" transform="matrix(1.00, 0.00, -0.00, -1.00, 402.0, 303.5)">o</text><text xml:space="preserve" font-family="GillSans,Gill Sans" font-size="24.0" fill="#60605F" transform="matrix(1.00, 0.00, -0.00, -1.00, 415.2, 303.5)">k</text><text xml:space="preserve" font-family="GillSans,Gill Sans" font-size="24.0" fill="#60605F" transform="matrix(1.00, 0.00, -0.00, -1.00, 426.7, 303.5)">a</text><text xml:space="preserve" font-family="GillSans,Gill Sans" font-size="24.0" fill="#60605F" transform="matrix(1.00, 0.00, -0.00, -1.00, 436.9, 303.5)">s</text></g></svg>